$MeshFormat
4.1 0 8
$EndMeshFormat
$Entities
1653 24 6 0
1 -8.068723722316965e-20 0 0 0 
2 0.002342933639601507 0 0 0 
3 0.004685867279203015 0 0 0 
4 0.007028800918804521 0 0 0 
5 0.009371734558406028 0 0 0 
6 0.01171466819800754 0 0 0 
7 0.01405760183760905 0 0 0 
8 0.01640053547721056 0 0 0 
9 0.01874346911681206 0 0 0 
10 0.02108640275641357 0 0 0 
11 0.02342933639601508 0 0 0 
12 0.02577227003561659 0 0 0 
13 0.0281152036752181 0 0 0 
14 0.03045813731481961 0 0 0 
15 0.03280107095442112 0 0 0 
16 0.03514400459402262 0 0 0 
17 0.03748693823362413 0 0 0 
18 0.03982987187322563 0 0 0 
19 0.04217280551282714 0 0 0 
20 0.04451573915242864 0 0 0 
21 0.04685867279203015 0 0 0 
22 0.04920160643163164 0 0 0 
23 0.05154454007123315 0 0 0 
24 0.05388747371083467 0 0 0 
25 0.05623040735043617 0 0 0 
26 0.0585733409900377 0 0 0 
27 0.06091627462963922 0 0 0 
28 0.06325920826924074 0 0 0 
29 0.06560214190884223 0 0 0 
30 0.06794507554844373 0 0 0 
31 0.07028800918804523 0 0 0 
32 0.07263094282764675 0 0 0 
33 0.07497387646724828 0 0 0 
34 0.07731681010684978 0 0 0 
35 0.07965974374645129 0 0 0 
36 0.08200267738605281 0 0 0 
37 0.08434561102565431 0 0 0 
38 0.08668854466525582 0 0 0 
39 0.08903147830485733 0 0 0 
40 0.09137441194445882 0 0 0 
41 0.09371734558406034 0 0 0 
42 0.09606027922366184 0 0 0 
43 0.09840321286326331 0 0 0 
44 0.1007461465028648 0 0 0 
45 0.1030890801424664 0 0 0 
46 0.1054320137820679 0 0 0 
47 0.1077749474216694 0 0 0 
48 0.1101178810612709 0 0 0 
49 0.1124608147008724 0 0 0 
50 0.1148037483404739 0 0 0 
51 0.1171466819800754 0 0 0 
52 0.119489615619677 0 0 0 
53 0.1218325492592784 0 0 0 
54 0.1241754828988799 0 0 0 
55 0.1265184165384815 0 0 0 
56 0.128861350178083 0 0 0 
57 0.1312042838176845 0 0 0 
58 0.133547217457286 0 0 0 
59 0.1358901510968875 0 0 0 
60 0.138233084736489 0 0 0 
61 0.1405760183760905 0 0 0 
62 0.142918952015692 0 0 0 
63 0.1452618856552935 0 0 0 
64 0.1476048192948951 0 0 0 
65 0.1499477529344965 0 0 0 
66 0.152290686574098 0 0 0 
67 0.1546336202136996 0 0 0 
68 0.1569765538533011 0 0 0 
69 0.1593194874929026 0 0 0 
70 0.161662421132504 0 0 0 
71 0.1640053547721055 0 0 0 
72 0.166348288411707 0 0 0 
73 0.1686912220513085 0 0 0 
74 0.17103415569091 0 0 0 
75 0.1733770893305115 0 0 0 
76 0.1757200229701131 0 0 0 
77 0.1780629566097146 0 0 0 
78 0.1804058902493161 0 0 0 
79 0.1827488238889177 0 0 0 
80 0.1850917575285192 0 0 0 
81 0.1874346911681208 0 0 0 
82 0.1897776248077223 0 0 0 
83 0.1921205584473238 0 0 0 
84 0.1944634920869252 0 0 0 
85 0.1968064257265268 0 0 0 
86 0.1991493593661283 0 0 0 
87 0.2014922930057297 0 0 0 
88 0.2038352266453313 0 0 0 
89 0.2061781602849327 0 0 0 
90 0.2085210939245343 0 0 0 
91 0.2108640275641358 0 0 0 
92 0.2132069612037372 0 0 0 
93 0.2155498948433388 0 0 0 
94 0.2178928284829402 0 0 0 
95 0.2202357621225418 0 0 0 
96 0.2225786957621432 0 0 0 
97 0.2249216294017447 0 0 0 
98 0.2272645630413462 0 0 0 
99 0.2296074966809478 0 0 0 
100 0.2319504303205493 0 0 0 
101 0.2319526719996396 0.0007975331125690726 0 0 
102 0.2319592075167117 0.001586541181813172 0 0 
103 0.231978093512196 0.003164521522091166 0 0 
104 0.2319906715771602 0.003953472790829422 0 0 
105 0.2320054914113072 0.004742384123770111 0 0 
106 0.232022666807913 0.0055312450197654 0 0 
107 0.2320645394616052 0.007108773496328556 0 0 
108 0.2320894643052436 0.007897420074600784 0 0 
109 0.2321171951173155 0.00868597422995441 0 0 
110 0.2321811727611417 0.01026276466180857 0 0 
111 0.2322173857134167 0.01105098095716991 0 0 
112 0.2322563912422332 0.0118390646550035 0 0 
113 0.2322981720185093 0.01262700576462846 0 0 
114 0.232390051629231 0.01420241968465217 0 0 
115 0.2324401701780739 0.01498987200917285 0 0 
116 0.2324930883628906 0.01577714091328571 0 0 
117 0.2325488165232765 0.01656421614925766 0 0 
118 0.2326687243088396 0.01813774440695749 0 0 
119 0.2327329031707685 0.01892417669641562 0 0 
120 0.2327998975395654 0.01971037393113752 0 0 
121 0.2329423261741375 0.02128202222566728 0 0 
122 0.2330177396425801 0.02206745536929606 0 0 
123 0.2330959270963657 0.02285261761500023 0 0 
124 0.2331768686657246 0.02363750140712678 0 0 
125 0.2333469402239929 0.02520640271750057 0 0 
126 0.2334360820054124 0.02599039871499928 0 0 
127 0.2335280138219463 0.02677407168328283 0 0 
128 0.2336227797498779 0.02755740611322935 0 0 
129 0.2338209887896611 0.02912299745175415 0 0 
130 0.2339244958252523 0.02990522550842515 0 0 
131 0.2340309500962083 0.03068705863939634 0 0 
132 0.2342527192279479 0.03224949216303966 0 0 
133 0.2343680449534201 0.03303006833507263 0 0 
134 0.2344863929851952 0.03381019214105842 0 0 
135 0.2346078909821946 0.03458983085025714 0 0 
136 0.2348608652888172 0.03614751905551818 0 0 
137 0.234992606010978 0.03692550152828476 0 0 
138 0.2351280651707698 0.03770285282950466 0 0 
139 0.2354111850875891 0.03925537088443257 0 0 
140 0.2355593862015461 0.0400303868991083 0 0 
141 0.23571237499048 0.04080447374590353 0 0 
142 0.2358704052848147 0.04157755565025492 0 0 
143 0.2362023346210052 0.04312039481670205 0 0 
144 0.2363765823824628 0.04388999659166331 0 0 
145 0.2365565846858965 0.04465828283636004 0 0 
146 0.2369346373985855 0.04619054183943959 0 0 
147 0.2371331883766356 0.04695426155175399 0 0 
148 0.2373384392202423 0.04771619550063422 0 0 
149 0.2375506525434424 0.04847620924159158 0 0 
150 0.2377700755393357 0.04923417237808957 0 0 
151 0.2379967333442552 0.04999001280286386 0 0 
152 0.2382304844911598 0.05074370214156361 0 0 
153 0.2387186847729187 0.05224451830787371 0 0 
154 0.2389728462698993 0.05299158944553109 0 0 
155 0.2392336492210447 0.05373635930605269 0 0 
156 0.2395012306617856 0.05447871170289732 0 0 
157 0.2397757375967911 0.05521852731374176 0 0 
158 0.24005731703073 0.05595568681626283 0 0 
159 0.240346116382153 0.05669007062132157 0 0 
160 0.2406423588251145 0.05742151030274907 0 0 
161 0.2409464310153957 0.05814973204319501 0 0 
162 0.2412587408952115 0.05887444830265997 0 0 
163 0.2415796964067763 0.05959537154114455 0 0 
164 0.2422491552279131 0.06102468020152198 0 0 
165 0.2425983534044172 0.06173244070265062 0 0 
166 0.2433271509258777 0.06313249909189483 0 0 
167 0.2437073281938646 0.06382412389618121 0 0 
168 0.2440984036736146 0.06450969007943044 0 0 
169 0.2445006187826211 0.0651888065396579 0 0 
170 0.2449141976139813 0.06586106229393041 0 0 
171 0.2453393642027487 0.06652604629270499 0 0 
172 0.2457763425839765 0.06718334748643874 0 0 
173 0.2462253484824708 0.06783255488202303 0 0 
174 0.2466864819508597 0.06847325827187022 0 0 
175 0.2471597582347036 0.069105048024311 0 0 
176 0.247645190629363 0.0697275145209198 0 0 
177 0.2486525769325708 0.07094283927293907 0 0 
178 0.2491745574318402 0.07153487829149829 0 0 
179 0.2497087472233672 0.07211595558052311 0 0 
180 0.2502551596025124 0.07268566152158794 0 0 
181 0.2508138078646363 0.07324358649626714 0 0 
182 0.2513847053050995 0.07378932088613512 0 0 
183 0.2494265534212666 0.07554502641600892 0 0 
184 0.2473907143810593 0.07718632461920825 0 0 
185 0.2452836727934976 0.07871983867395589 0 0 
186 0.2431119132676006 0.08015219175847453 0 0 
187 0.2408819204123881 0.08149000705098688 0 0 
188 0.2386001788368795 0.08273990772971566 0 0 
189 0.2362731731500944 0.08390851697288361 0 0 
190 0.2339073879610523 0.08500245795871342 0 0 
191 0.2315093078787728 0.08602835386542781 0 0 
192 0.2290854175122754 0.08699282787124953 0 0 
193 0.2266420709019817 0.0879024842669605 0 0 
194 0.2241833095196964 0.08876359281801641 0 0 
195 0.2217111911271823 0.08958213633568531 0 0 
196 0.2192277091748102 0.09036408832825098 0 0 
197 0.2167348571129507 0.0911154223039972 0 0 
198 0.2142346170768309 0.09184207537852664 0 0 
199 0.211728370848936 0.09254805376436605 0 0 
200 0.2092166122259778 0.09323450766232859 0 0 
201 0.2066997633853746 0.09390235692546116 0 0 
202 0.2041782465045452 0.09455252140681086 0 0 
203 0.201652483641567 0.0951859207098469 0 0 
204 0.1991228348493798 0.09580334476695694 0 0 
205 0.1965894969117357 0.09640524206636616 0 0 
206 0.1940526400566143 0.09699200556032531 0 0 
207 0.1915124345119949 0.09756402820108497 0 0 
208 0.1889690505058572 0.09812170294089587 0 0 
209 0.186422660823963 0.09866545238240296 0 0 
210 0.1838734507921244 0.09919584449534583 0 0 
211 0.1813216095730179 0.09971349172727058 0 0 
212 0.1787673263302976 0.1002190065370512 0 0 
213 0.1762107902276171 0.1007130013835614 0 0 
214 0.1736521832455038 0.1011960642591479 0 0 
215 0.1710916188749742 0.1016685498732808 0 0 
216 0.1685291726410265 0.1021306836189557 0 0 
217 0.1659649196646402 0.1025826895130367 0 0 
218 0.1633989350667951 0.1030247915723882 0 0 
219 0.1608312925446834 0.1034572042331551 0 0 
220 0.1582620350439445 0.1038799350031301 0 0 
221 0.1556911758280757 0.1042927916578582 0 0 
222 0.1531187269507528 0.104695573831951 0 0 
223 0.1505447004656517 0.1050880811600202 0 0 
224 0.1479691089091311 0.1054701169940344 0 0 
225 0.1453920009400235 0.1058417628813903 0 0 
226 0.1428134857664994 0.1062035666871844 0 0 
227 0.1402336783772177 0.1065561207946558 0 0 
228 0.1376526937608375 0.1069000175870434 0 0 
229 0.1350706468911317 0.1072358493517076 0 0 
230 0.1324876298196536 0.1075640607333245 0 0 
231 0.1299036654254269 0.1078846508343121 0 0 
232 0.1273187635908783 0.1081975350456282 0 0 
233 0.1247329341984342 0.1085026287582312 0 0 
234 0.1221461871305215 0.108799847363079 0 0 
235 0.1195585340621049 0.1090891140129128 0 0 
236 0.1169699968108281 0.1093703957787889 0 0 
237 0.1143806007578024 0.109643675161762 0 0 
238 0.1117903712880421 0.1099089346797858 0 0 
239 0.1091993337865617 0.1101661568508143 0 0 
240 0.1066075145481492 0.110415337601257 0 0 
241 0.1040149501003645 0.1106566236704415 0 0 
242 0.1014216834130941 0.1108902567461705 0 0 
243 0.09882775755665457 0.111116479996407 0 0 
244 0.09623321560136225 0.1113355365891136 0 0 
245 0.09363810027446144 0.1115476670895712 0 0 
246 0.09104244501038057 0.11175304156406 0 0 
247 0.08844627309778072 0.1119517531090301 0 0 
248 0.08584960731124811 0.1121438909209552 0 0 
249 0.08325247042536894 0.1123295441963088 0 0 
250 0.08065488521186411 0.112508802220478 0 0 
251 0.07805687411828301 0.1126817643382696 0 0 
252 0.07545845897435367 0.1128485490662082 0 0 
253 0.07285966154043573 0.1130092770734028 0 0 
254 0.07026050357688877 0.1131640690289628 0 0 
255 0.06766100684392734 0.113313045600811 0 0 
256 0.06506119153908653 0.1134563146642956 0 0 
257 0.06246107243593792 0.1135939396925392 0 0 
258 0.05986066313203393 0.1137259745314096 0 0 
259 0.05725997722492682 0.1138524730267747 0 0 
260 0.0546590283121689 0.1139734890245023 0 0 
261 0.05205782929138698 0.1140890528801188 0 0 
262 0.04945638847369222 0.1141990410201932 0 0 
263 0.04685471232344899 0.114303267892253 0 0 
264 0.04425280729995613 0.1144015477738256 0 0 
265 0.04165067986251262 0.1144936949424389 0 0 
266 0.03904833697930128 0.1145795374576835 0 0 
267 0.03644579243687539 0.1146590880405403 0 0 
268 0.03384306489109358 0.1147324912869999 0 0 
269 0.03124017310298164 0.1147998946412898 0 0 
270 0.02863713583356544 0.1148614455476377 0 0 
271 0.02603397175661405 0.1149172905564834 0 0 
272 0.02343069650512174 0.1149675450710063 0 0 
273 0.02082732195403016 0.1150122859999087 0 0 
274 0.01822385974554864 0.1150515878679691 0 0 
275 0.01562032152188651 0.1150855251999659 0 0 
276 0.01301671892525305 0.1151141725206775 0 0 
277 0.01041306359785762 0.1151376043548823 0 0 
278 0.007809367181909509 0.1151558952273587 0 0 
279 0.00520564131961801 0.1151691196628852 0 0 
280 0.002601897653192489 0.1151773521862401 0 0 
281 -1.852175157766324e-06 0.1151806673222019 0 0 
282 0 0.1140180911934169 0 0 
283 0 0.11285464128328 0 0 
284 0 0.1116911913731431 0 0 
285 0 0.1105277414630062 0 0 
286 0 0.1093642915528693 0 0 
287 0 0.1082008416427324 0 0 
288 0 0.1070373917325955 0 0 
289 0 0.1058739418224586 0 0 
290 0 0.1047104919123217 0 0 
291 0 0.1035470420021848 0 0 
292 0 0.1023835920920479 0 0 
293 0 0.101220142181911 0 0 
294 0 0.100056692271774 0 0 
295 0 0.09889324236163713 0 0 
296 0 0.09772979245150022 0 0 
297 0 0.09656634254136334 0 0 
298 0 0.09540289263122642 0 0 
299 0 0.09423944272108954 0 0 
300 0 0.09307599281095262 0 0 
301 0 0.09191254290081569 0 0 
302 0 0.09074909299067878 0 0 
303 0 0.08958564308054189 0 0 
304 0 0.08842219317040495 0 0 
305 0 0.08725874326026806 0 0 
306 0 0.08609529335013115 0 0 
307 0 0.08493184343999423 0 0 
308 0 0.08376839352985734 0 0 
309 0 0.08260494361972041 0 0 
310 0 0.08144149370958352 0 0 
311 0 0.08027804379944659 0 0 
312 0 0.07911459388930969 0 0 
313 0 0.0779511439791728 0 0 
314 0 0.07678769406903588 0 0 
315 0 0.07562424415889897 0 0 
316 0 0.07446079424876206 0 0 
317 0 0.07329734433862517 0 0 
318 0 0.07213389442848826 0 0 
319 0 0.07097044451835134 0 0 
320 0 0.06980699460821442 0 0 
321 0 0.06864354469807751 0 0 
322 0 0.06748009478794061 0 0 
323 0 0.0663166448778037 0 0 
324 0 0.06515319496766679 0 0 
325 0 0.06398974505752987 0 0 
326 0 0.06282629514739298 0 0 
327 0 0.06166284523725607 0 0 
328 0 0.06049939532711916 0 0 
329 0 0.05933594541698226 0 0 
330 0 0.05817249550684536 0 0 
331 0 0.05700904559670845 0 0 
332 0 0.05584559568657154 0 0 
333 0 0.05468214577643463 0 0 
334 0 0.05351869586629774 0 0 
335 0 0.05235524595616083 0 0 
336 0 0.05119179604602393 0 0 
337 0 0.05002834613588701 0 0 
338 0 0.04886489622575012 0 0 
339 0 0.04770144631561322 0 0 
340 0 0.0465379964054763 0 0 
341 0 0.04537454649533939 0 0 
342 0 0.04421109658520248 0 0 
343 0 0.04304764667506557 0 0 
344 0 0.04188419676492866 0 0 
345 0 0.04072074685479175 0 0 
346 0 0.03955729694465485 0 0 
347 0 0.03839384703451793 0 0 
348 0 0.03723039712438102 0 0 
349 0 0.03606694721424411 0 0 
350 0 0.03490349730410721 0 0 
351 0 0.0337400473939703 0 0 
352 0 0.0325765974838334 0 0 
353 0 0.0314131475736965 0 0 
354 0 0.03024969766355959 0 0 
355 0 0.02908624775342268 0 0 
356 0 0.02792279784328577 0 0 
357 0 0.02675934793314887 0 0 
358 0 0.02559589802301196 0 0 
359 0 0.02443244811287505 0 0 
360 0 0.02326899820273815 0 0 
361 0 0.02210554829260124 0 0 
362 0 0.02094209838246434 0 0 
363 0 0.01977864847232743 0 0 
364 0 0.01861519856219053 0 0 
365 0 0.01745174865205363 0 0 
366 0 0.01628829874191671 0 0 
367 0 0.0151248488317798 0 0 
368 0 0.01396139892164289 0 0 
369 0 0.01279794901150598 0 0 
370 0 0.01163449910136907 0 0 
371 0 0.01047104919123217 0 0 
372 0 0.009307599281095261 0 0 
373 0 0.008144149370958347 0 0 
374 0 0.006980699460821443 0 0 
375 0 0.005817249550684527 0 0 
376 0 0.004653799640547624 0 0 
377 0 0.003490349730410722 0 0 
378 0 0.002326899820273805 0 0 
379 0 0.001163449910136903 0 0 
380 0.2397085067819579 0 0 0 
381 0.2474665832433665 0 0 0 
382 0.255224659704775 0 0 0 
383 0.2629827361661837 0 0 0 
384 0.2707408126275922 0 0 0 
385 0.2784988890890008 0 0 0 
386 0.2862569655504095 0 0 0 
387 0.2940150420118181 0 0 0 
388 0.3017731184732267 0 0 0 
389 0.3095311949346353 0 0 0 
390 0.317289271396044 0 0 0 
391 0.3250473478574525 0 0 0 
392 0.3328054243188611 0 0 0 
393 0.3405635007802696 0 0 0 
394 0.3483215772416782 0 0 0 
395 0.3560796537030868 0 0 0 
396 0.3638377301644953 0 0 0 
397 0.3715958066259039 0 0 0 
398 0.3793538830873125 0 0 0 
399 0.3871119595487211 0 0 0 
400 0.3948700360101297 0 0 0 
401 0.4026281124715383 0 0 0 
402 0.4103861889329469 0 0 0 
403 0.4181442653943556 0 0 0 
404 0.4259023418557643 0 0 0 
405 0.4336604183171727 0 0 0 
406 0.4414184947785813 0 0 0 
407 0.4491765712399899 0 0 0 
408 0.4569346477013985 0 0 0 
409 0.4646927241628069 0 0 0 
410 0.4724508006242157 0 0 0 
411 0.4802088770856242 0 0 0 
412 0.4879669535470329 0 0 0 
413 0.4957250300084415 0 0 0 
414 0.50348310646985 0 0 0 
415 0.5112411829312586 0 0 0 
416 0.5189992593926673 0 0 0 
417 0.526757335854076 0 0 0 
418 0.5345154123154846 0 0 0 
419 0.5422734887768931 0 0 0 
420 0.5500315652383018 0 0 0 
421 0.5577896416997102 0 0 0 
422 0.5655477181611188 0 0 0 
423 0.5733057946225274 0 0 0 
424 0.5810638710839362 0 0 0 
425 0.5888219475453447 0 0 0 
426 0.5965800240067534 0 0 0 
427 0.6043381004681619 0 0 0 
428 0.6120961769295706 0 0 0 
429 0.6198542533909792 0 0 0 
430 0.6276123298523877 0 0 0 
431 0.6353704063137963 0 0 0 
432 0.6431284827752048 0 0 0 
433 0.6508865592366133 0 0 0 
434 0.6586446356980219 0 0 0 
435 0.6664027121594306 0 0 0 
436 0.6741607886208392 0 0 0 
437 0.6819188650822479 0 0 0 
438 0.6896769415436564 0 0 0 
439 0.697435018005065 0 0 0 
440 0.7051930944664735 0 0 0 
441 0.7129511709278818 0 0 0 
442 0.7207092473892907 0 0 0 
443 0.7284673238506992 0 0 0 
444 0.7362254003121079 0 0 0 
445 0.7439834767735167 0 0 0 
446 0.7517415532349254 0 0 0 
447 0.7594996296963341 0 0 0 
448 0.7672577061577426 0 0 0 
449 0.7750157826191512 0 0 0 
450 0.7827738590805597 0 0 0 
451 0.7905319355419682 0 0 0 
452 0.7982900120033768 0 0 0 
453 0.8060480884647853 0 0 0 
454 0.8138061649261942 0 0 0 
455 0.8215642413876025 0 0 0 
456 0.8293223178490113 0 0 0 
457 0.8370803943104198 0 0 0 
458 0.8448384707718281 0 0 0 
459 0.8525965472332371 0 0 0 
460 0.8603546236946454 0 0 0 
461 0.8681127001560538 0 0 0 
462 0.8758707766174623 0 0 0 
463 0.8836288530788708 0 0 0 
464 0.8913869295402796 0 0 0 
465 0.8991450060016882 0 0 0 
466 0.906903082463097 0 0 0 
467 0.9146611589245056 0 0 0 
468 0.9224192353859143 0 0 0 
469 0.9301773118473229 0 0 0 
470 0.9379353883087312 0 0 0 
471 0.9456934647701399 0 0 0 
472 0.9534515412315484 0 0 0 
473 0.9612096176929571 0 0 0 
474 0.9689676941543656 0 0 0 
475 0.9767257706157741 0 0 0 
476 0.9844838470771826 0 0 0 
477 0.9922419235385914 0 0 0 
478 1 0 0 0 
479 0.9999999999999999 0.0005749048956444768 0 0 
480 1 0.001533079721718604 0 0 
481 1 0.002682889513007558 0 0 
482 0.9999999999999998 0.003641064339081686 0 0 
483 0.9999999999999996 0.004599239165155812 0 0 
484 0.9999999999999999 0.005557413991229941 0 0 
485 0.9999999999999998 0.006515588817304071 0 0 
486 0.9999999999999999 0.007665398608593024 0 0 
487 1 0.008623573434667154 0 0 
488 1 0.009581748260741279 0 0 
489 1 0.01053992308681541 0 0 
490 1.000000000000001 0.01168973287810437 0 0 
491 1 0.01264790770417849 0 0 
492 1 0.01360608253025262 0 0 
493 1 0.01456425735632675 0 0 
494 1 0.01552243218240088 0 0 
495 1 0.01667224197368983 0 0 
496 1 0.01763041679976396 0 0 
497 0.9999999999999999 0.01858859162583808 0 0 
498 0.9923696995102779 0.0189745893743517 0 0 
499 0.9847374465045489 0.01897922469522241 0 0 
500 0.9771051946662334 0.01898582480374332 0 0 
501 0.9694729446826187 0.01899442956353712 0 0 
502 0.9618406972409927 0.01900507883822651 0 0 
503 0.9542084530286427 0.0190178124914342 0 0 
504 0.9465762127328565 0.01903267038678289 0 0 
505 0.9389439770409218 0.01904969238789529 0 0 
506 0.9313117466401259 0.01906891835839409 0 0 
507 0.9236795222177567 0.019090388161902 0 0 
508 0.9160473044685944 0.0191141416683368 0 0 
509 0.9084150942111603 0.01914021885158109 0 0 
510 0.9007828923655561 0.01916865977086202 0 0 
511 0.8931506998548887 0.01919950448793223 0 0 
512 0.8855185176022647 0.01923279306454432 0 0 
513 0.8778863465327765 0.01926856564608834 0 0 
514 0.8702541876684776 0.01930686646313914 0 0 
515 0.862622042170196 0.01934774559317638 0 0 
516 0.8549899112094465 0.0193912535639221 0 0 
517 0.8473577959577441 0.01943744090309833 0 0 
518 0.8397256975870029 0.01948635816253294 0 0 
519 0.8320936174442415 0.01953806646316377 0 0 
520 0.8244615573252716 0.01959265401453015 0 0 
521 0.8168295190967932 0.01965021330500038 0 0 
522 0.8091975046255078 0.01971083682294275 0 0 
523 0.8015655157781163 0.01977461705672557 0 0 
524 0.7939335545095032 0.01984164665231946 0 0 
525 0.7863016231985178 0.01991201901340256 0 0 
526 0.7786697243512622 0.01998582777108011 0 0 
527 0.7710378604738629 0.02006316655650098 0 0 
528 0.763406034072447 0.02014412900081403 0 0 
529 0.7557742477329609 0.02022881132064484 0 0 
530 0.7481425047931317 0.0203173340837035 0 0 
531 0.7405108090033634 0.02040983122481409 0 0 
532 0.7328791641183124 0.02050643681656169 0 0 
533 0.7252475738926353 0.02060728493153142 0 0 
534 0.7176160421393878 0.02071251119946129 0 0 
535 0.7099845739284213 0.02082228476132267 0 0 
536 0.7023531755401872 0.02093680703756771 0 0 
537 0.6947218533042927 0.02105628075934269 0 0 
538 0.6870906135503454 0.02118090865779389 0 0 
539 0.6794594626217454 0.02131089366874183 0 0 
540 0.6718284079109523 0.02144645429522195 0 0 
541 0.6641974585785062 0.02158783527718294 0 0 
542 0.6565666239549448 0.02173528387720394 0 0 
543 0.648935913370806 0.02188904735786413 0 0 
544 0.6413053361576614 0.02204937300060802 0 0 
545 0.6336749034866196 0.02221654163575359 0 0 
546 0.6260446321591583 0.02239093677851454 0 0 
547 0.6184145400502823 0.02257296152272735 0 0 
548 0.6107846450349955 0.02276301896222846 0 0 
549 0.6031549649883021 0.02296151219085431 0 0 
550 0.5955255185337648 0.02316884905460135 0 0 
551 0.5878963286305348 0.02338546492356814 0 0 
552 0.5802674197949836 0.0236118050537335 0 0 
553 0.5726388165455104 0.02384831471394543 0 0 
554 0.5650105434005143 0.02409543917305194 0 0 
555 0.5573826267322106 0.02435364762352687 0 0 
556 0.5497551145592385 0.02462368860626405 0 0 
557 0.5421280689112933 0.02490649147571498 0 0 
558 0.5345015520536459 0.02520298862645321 0 0 
559 0.5268756262515679 0.0255141124530523 0 0 
560 0.5192503540634698 0.02584079714397411 0 0 
561 0.5116258065381212 0.02618402884512646 0 0 
562 0.5040020643169744 0.0265448524056111 0 0 
563 0.4963792085561148 0.02692431582387284 0 0 
564 0.4887573204116279 0.02732346709835649 0 0 
565 0.4811364814746985 0.02774335661074557 0 0 
566 0.4735168309763795 0.02818535046300879 0 0 
567 0.465898622884217 0.02865144322208407 0 0 
568 0.4582821247463471 0.02914370384209958 0 0 
569 0.450667604110906 0.02966420127718354 0 0 
570 0.4430553285260332 0.03021500448484731 0 0 
571 0.4354455656750752 0.03079833511534101 0 0 
572 0.4278385837373362 0.03141697491682972 0 0 
573 0.4202346510058094 0.032073834028763 0 0 
574 0.4126340357734875 0.03277182259059035 0 0 
575 0.4050370063333635 0.0335138507417613 0 0 
576 0.3974439722576533 0.03430311536492193 0 0 
577 0.3898563325647606 0.03514482154291223 0 0 
578 0.3822759092123174 0.03604503276466889 0 0 
579 0.3747045257504202 0.03700981575122782 0 0 
580 0.3671440057291663 0.03804523722362502 0 0 
581 0.3595960933560864 0.0391572879004049 0 0 
582 0.3520613687776458 0.04035084344238374 0 0 
583 0.34453952773259 0.04162993233346259 0 0 
584 0.3370302438746532 0.04299856190224134 0 0 
585 0.3295331908575701 0.04446073947731988 0 0 
586 0.3220482382371102 0.04602079431002538 0 0 
587 0.3145831637088287 0.047696050973149 0 0 
588 0.3071561903839446 0.04952099882640612 0 0 
589 0.2997862570807739 0.05153130333970396 0 0 
590 0.2924923026176326 0.05376262998294971 0 0 
591 0.2852932658128368 0.05625064422605062 0 0 
592 0.2782080854847023 0.05903101153891391 0 0 
593 0.2712557004515454 0.06213939739144678 0 0 
594 0.2644550495316819 0.06561146725355643 0 0 
595 0.257825071543428 0.06948288659515017 0 0 
596 0.254936301587117 0.08189568808089398 0 0 
597 0.2584741667907645 0.09000805853866074 0 0 
598 0.2619980200309999 0.09812652532081574 0 0 
599 0.2655075906508169 0.106251176613282 0 0 
600 0.2690026184808049 0.1143820944573337 0 0 
601 0.2724828540428798 0.1225193547410073 0 0 
602 0.2759480588614038 0.1306630271325777 0 0 
603 0.2793980057368791 0.1388131750437852 0 0 
604 0.2828324790363508 0.1469698555899768 0 0 
605 0.2862512749823009 0.1551331195581598 0 0 
606 0.2896542019461171 0.1633030113792142 0 0 
607 0.2930410807444788 0.1714795691052058 0 0 
608 0.2964117449394104 0.1796628243912732 0 0 
609 0.299766041142041 0.1878528024819703 0 0 
610 0.3031038293203536 0.1960495222018147 0 0 
611 0.306424983111148 0.2042529959497929 0 0 
612 0.3097293901364985 0.2124632296975554 0 0 
613 0.3130169523249948 0.2206802229910096 0 0 
614 0.3162875862380886 0.2289039689549924 0 0 
615 0.3195412234019014 0.2371344543006902 0 0 
616 0.3227778106448783 0.2453716593354369 0 0 
617 0.3259973104417122 0.2536155579745031 0 0 
618 0.3291997012640051 0.2618661177544531 0 0 
619 0.3323849779381828 0.270123299847623 0 0 
620 0.3355531520112222 0.278387059077235 0 0 
621 0.3387042521248171 0.2866573439326299 0 0 
622 0.3418383243986661 0.2949340965840607 0 0 
623 0.344955432823637 0.3032172528964537 0 0 
624 0.348055659665641 0.3115067424414916 0 0 
625 0.3511391058811364 0.3198024885073331 0 0 
626 0.3542058915452746 0.3281044081052221 0 0 
627 0.3572561562938124 0.3364124119721937 0 0 
628 0.36029005978003 0.34472640456901 0 0 
629 0.3633077821480296 0.3530462840723965 0 0 
630 0.3663095245239295 0.3613719423605695 0 0 
631 0.3692955095266517 0.3697032649909666 0 0 
632 0.372265981800162 0.378040131168988 0 0 
633 0.3752212085692533 0.3863824137064634 0 0 
634 0.3781614802211782 0.3947299789684311 0 0 
635 0.3810871109157153 0.4030826868066987 0 0 
636 0.3839984392265366 0.4114403904784875 0 0 
637 0.3868958288170998 0.4198029365483152 0 0 
638 0.3897796691547208 0.4281701647710571 0 0 
639 0.3926503762666892 0.4365419079539672 0 0 
640 0.3955083935429963 0.444917991795157 0 0 
641 0.3983541925908405 0.4532982346957216 0 0 
642 0.4011882741464799 0.4616824475424746 0 0 
643 0.4040111690514124 0.4700704334576569 0 0 
644 0.4068234392977396 0.4784619875125434 0 0 
645 0.4096256791618907 0.4868568963969839 0 0 
646 0.4124185163884179 0.4952549380556984 0 0 
647 0.4152026136394212 0.5036558812180628 0 0 
648 0.4179786693541472 0.5120594851016531 0 0 
649 0.4207474216628476 0.5204654980831716 0 0 
650 0.4235096403447605 0.5288736602919347 0 0 
651 0.4262661684568444 0.537283689765825 0 0 
652 0.4290177632312144 0.5456953348789662 0 0 
653 0.4317657461007931 0.5541081594578622 0 0 
654 0.4345087489896696 0.5625226139560371 0 0 
655 0.4372272495073112 0.570945005124382 0 0 
656 0.4399057854876656 0.5793802020075536 0 0 
657 0.4425485689668838 0.587826662829306 0 0 
658 0.4451561069358991 0.5962840730814856 0 0 
659 0.447729936728826 0.6047518019158142 0 0 
660 0.4502714466071615 0.6132292875914399 0 0 
661 0.4527821758882362 0.6217159403053849 0 0 
662 0.4552637496478902 0.630211164178927 0 0 
663 0.4577179025512544 0.6387143501332322 0 0 
664 0.4601464831884087 0.6472248750784098 0 0 
665 0.4625514643763881 0.6557420991035018 0 0 
666 0.4649349540642491 0.6642653624060318 0 0 
667 0.4672992083839748 0.6727939814434412 0 0 
668 0.4696466470248063 0.681327244225574 0 0 
669 0.4719798714887304 0.6898644045335045 0 0 
670 0.4743016869079174 0.6984046748005974 0 0 
671 0.4766151282721421 0.7069472173128857 0 0 
672 0.4789234921647858 0.7154911332752463 0 0 
673 0.4812303754385469 0.7240354491374871 0 0 
674 0.4835397227153021 0.7325790993606207 0 0 
675 0.485855885221243 0.7411209044993592 0 0 
676 0.4881836943481679 0.749659543036254 0 0 
677 0.4905285545853927 0.7581935147562863 0 0 
678 0.4928965622876623 0.7667210924719556 0 0 
679 0.4952946594268214 0.7752402574413718 0 0 
680 0.4977308355634195 0.7837486113880786 0 0 
681 0.5002143974449319 0.7922432546121309 0 0 
682 0.5027563360017608 0.800720612052335 0 0 
683 0.505369835241345 0.8091761835514656 0 0 
684 0.5080710008586691 0.8176041558027469 0 0 
685 0.5108799126608795 0.8259968510011966 0 0 
686 0.5138222753227203 0.8343436416933594 0 0 
687 0.51693180775248 0.8426298329573207 0 0 
688 0.5202549731977969 0.8508319479143239 0 0 
689 0.5238564224111247 0.8589183884146683 0 0 
690 0.5278390029813751 0.8668163194376858 0 0 
691 0.5323534291196917 0.8744434610020753 0 0 
692 0.5376974446687462 0.8814969444849459 0 0 
693 0.5444706877022317 0.8869797162364815 0 0 
694 0.5533158704383614 0.8897940086117562 0 0 
695 0.5476735708417101 0.8899795650624625 0 0 
696 0.5420663405633644 0.890388906989378 0 0 
697 0.5364893499940884 0.8909918909303339 0 0 
698 0.530937762048578 0.8917583899923751 0 0 
699 0.5254067396415297 0.892658277282547 0 0 
700 0.5198914456876401 0.8936614259078947 0 0 
701 0.5143870431016052 0.8947377089754632 0 0 
702 0.5088886947981215 0.8958569995922983 0 0 
703 0.5033915636918855 0.8969891708654448 0 0 
704 0.4978908126975934 0.8981040959019481 0 0 
705 0.4923818082893958 0.8991728757061302 0 0 
706 0.486863167455715 0.900186218809949 0 0 
707 0.4813361184243097 0.9011505850828958 0 0 
708 0.4758019632022794 0.9020728794411026 0 0 
709 0.4702620037967233 0.9029600068007018 0 0 
710 0.4647175309470381 0.9038188044890612 0 0 
711 0.4591693188011123 0.9046530110846054 0 0 
712 0.4536174210817275 0.9054620437309269 0 0 
713 0.4480618380583686 0.9062449989346263 0 0 
714 0.4425025700005208 0.9070009732023044 0 0 
715 0.4369396174191118 0.907729065072325 0 0 
716 0.4313730684251093 0.9084291102447597 0 0 
717 0.4258032285029582 0.9091027736357845 0 0 
718 0.4202304362780314 0.9097519990452752 0 0 
719 0.4146550303757021 0.9103787302731082 0 0 
720 0.4090773494213431 0.9109849111191586 0 0 
721 0.4034976941750146 0.9115722468377995 0 0 
722 0.3979161902511454 0.912141339293527 0 0 
723 0.3923329126590585 0.9126924715466477 0 0 
724 0.3867479364031066 0.9132259266261558 0 0 
725 0.3811613364876426 0.913741987561045 0 0 
726 0.3755731903480321 0.9142409749707164 0 0 
727 0.3699835972360149 0.9147235468180285 0 0 
728 0.3643926679213996 0.9151905391680845 0 0 
729 0.3588005132780258 0.9156427896946053 0 0 
730 0.3532072441797328 0.9160811360713123 0 0 
731 0.3476129694618856 0.9165063957209648 0 0 
732 0.3420177570843301 0.91691897999385 0 0 
733 0.3364216372149966 0.9173189248014274 0 0 
734 0.3308246386012503 0.9177062519427424 0 0 
735 0.3252267899904568 0.9180809832168406 0 0 
736 0.3196281203335893 0.918443144511202 0 0 
737 0.3140286721361535 0.9187930338875152 0 0 
738 0.3084285097209688 0.9191313874978415 0 0 
739 0.3028276993853073 0.9194589811411282 0 0 
740 0.2972263074264407 0.9197765906163217 0 0 
741 0.2916244001294993 0.9200849915447493 0 0 
742 0.2860220308507481 0.9203847704140364 0 0 
743 0.2804192154623772 0.9206759653649912 0 0 
744 0.2748159630821845 0.920958515729809 0 0 
745 0.2692122828279676 0.921232360840685 0 0 
746 0.2636081838175247 0.921497440029815 0 0 
747 0.2580036776217965 0.921753751429168 0 0 
748 0.2523987891788719 0.9220016135699295 0 0 
749 0.2467935479575321 0.9222414535801627 0 0 
750 0.2411879834302038 0.9224736986753077 0 0 
751 0.2355821250693137 0.922698776070804 0 0 
752 0.2299760011094127 0.9229170889266 0 0 
753 0.2243696263946135 0.9231287801878915 0 0 
754 0.2187630075822708 0.9233338337076014 0 0 
755 0.2131561512122439 0.9235322310553877 0 0 
756 0.2075490638243931 0.9237239538009094 0 0 
757 0.2019417520778417 0.9239089873844106 0 0 
758 0.1963342257120551 0.9240874172151414 0 0 
759 0.1907264977467442 0.9242594351590463 0 0 
760 0.185118581360915 0.9244252382518028 0 0 
761 0.1795104897335734 0.9245850235290876 0 0 
762 0.1739022360242307 0.9247389876692104 0 0 
763 0.1682938313509777 0.9248872899273415 0 0 
764 0.1626852830273422 0.9250300198137669 0 0 
765 0.1570765979512881 0.9251672592206849 0 0 
766 0.1514677830207788 0.9252990900402935 0 0 
767 0.1458588451337277 0.9254255941624068 0 0 
768 0.1402497908188707 0.925546835952974 0 0 
769 0.1346406253492765 0.9256628201748378 0 0 
770 0.129031353731294 0.9257735389303615 0 0 
771 0.1234219809712719 0.9258789843219094 0 0 
772 0.1178125120755591 0.9259791484518454 0 0 
773 0.112202952208602 0.9260740403796924 0 0 
774 0.1065933075532942 0.9261637784010774 0 0 
775 0.1009835846962732 0.9262485241161836 0 0 
776 0.09537379022518896 0.9263284392338063 0 0 
777 0.08976393072769163 0.9264036854627411 0 0 
778 0.08415401264045687 0.9264744154236667 0 0 
779 0.07854404040843842 0.926540661842687 0 0 
780 0.07293401706951205 0.9266023727448074 0 0 
781 0.06732394563195158 0.9266594943731193 0 0 
782 0.06171382910403115 0.9267119729707152 0 0 
783 0.05610367050724847 0.9267597555399019 0 0 
784 0.0504934733169587 0.926802815140096 0 0 
785 0.04488324156544474 0.9268411568053718 0 0 
786 0.03927297931909831 0.9268747875280863 0 0 
787 0.03366269064431143 0.9269037143005971 0 0 
788 0.02805237960747585 0.9269279441152618 0 0 
789 0.02244205027498351 0.9269474839644369 0 0 
790 0.01683170671322625 0.926962340840481 0 0 
791 0.01122135298859584 0.9269725217357505 0 0 
792 0.005610993167484282 0.9269780336426036 0 0 
793 6.31316283359652e-07 0.9269788835533972 0 0 
794 0 0.9187773698765485 0 0 
795 0 0.9105774124400892 0 0 
796 0 0.9023774550036298 0 0 
797 0 0.8941774975671708 0 0 
798 0 0.8859775401307116 0 0 
799 0 0.8777775826942528 0 0 
800 0 0.8695776252577936 0 0 
801 0 0.8613776678213344 0 0 
802 0 0.8531777103848752 0 0 
803 0 0.8449777529484161 0 0 
804 0 0.8367777955119569 0 0 
805 0 0.8285778380754977 0 0 
806 0 0.8203778806390384 0 0 
807 0 0.8121779232025793 0 0 
808 0 0.8039779657661199 0 0 
809 0 0.7957780083296611 0 0 
810 0 0.7875780508932019 0 0 
811 0 0.7793780934567429 0 0 
812 0 0.7711781360202838 0 0 
813 0 0.7629781785838248 0 0 
814 0 0.7547782211473656 0 0 
815 0 0.7465782637109066 0 0 
816 0 0.7383783062744474 0 0 
817 0 0.7301783488379882 0 0 
818 0 0.7219783914015293 0 0 
819 0 0.7137784339650699 0 0 
820 0 0.7055784765286109 0 0 
821 0 0.6973785190921518 0 0 
822 0 0.6891785616556926 0 0 
823 0 0.6809786042192335 0 0 
824 0 0.6727786467827745 0 0 
825 0 0.6645786893463151 0 0 
826 0 0.6563787319098562 0 0 
827 0 0.6481787744733969 0 0 
828 0 0.6399788170369377 0 0 
829 0 0.6317788596004785 0 0 
830 0 0.6235789021640195 0 0 
831 0 0.6153789447275605 0 0 
832 0 0.6071789872911013 0 0 
833 0 0.5989790298546422 0 0 
834 0 0.5907790724181833 0 0 
835 0 0.5825791149817239 0 0 
836 0 0.574379157545265 0 0 
837 0 0.5661792001088057 0 0 
838 0 0.5579792426723467 0 0 
839 0 0.5497792852358876 0 0 
840 0 0.5415793277994285 0 0 
841 0 0.5333793703629692 0 0 
842 0 0.5251794129265103 0 0 
843 0 0.5169794554900512 0 0 
844 0 0.5087794980535919 0 0 
845 0 0.5005795406171329 0 0 
846 0 0.4923795831806736 0 0 
847 0 0.4841796257442144 0 0 
848 0 0.4759796683077554 0 0 
849 0 0.4677797108712962 0 0 
850 0 0.4595797534348371 0 0 
851 0 0.451379795998378 0 0 
852 0 0.4431798385619187 0 0 
853 0 0.4349798811254597 0 0 
854 0 0.4267799236890005 0 0 
855 0 0.4185799662525414 0 0 
856 0 0.4103800088160822 0 0 
857 0 0.4021800513796232 0 0 
858 0 0.3939800939431641 0 0 
859 0 0.385780136506705 0 0 
860 0 0.3775801790702459 0 0 
861 0 0.3693802216337867 0 0 
862 0 0.3611802641973276 0 0 
863 0 0.3529803067608683 0 0 
864 0 0.3447803493244093 0 0 
865 0 0.3365803918879501 0 0 
866 0 0.328380434451491 0 0 
867 0 0.3201804770150319 0 0 
868 0 0.3119805195785728 0 0 
869 0 0.3037805621421137 0 0 
870 0 0.2955806047056546 0 0 
871 0 0.2873806472691955 0 0 
872 0 0.2791806898327364 0 0 
873 0 0.2709807323962772 0 0 
874 0 0.2627807749598181 0 0 
875 0 0.254580817523359 0 0 
876 0 0.2463808600868999 0 0 
877 0 0.2381809026504408 0 0 
878 0 0.2299809452139816 0 0 
879 0 0.2217809877775225 0 0 
880 0 0.2135810303410633 0 0 
881 0 0.2053810729046042 0 0 
882 0 0.197181115468145 0 0 
883 0 0.1889811580316859 0 0 
884 0 0.1807812005952268 0 0 
885 0 0.1725812431587676 0 0 
886 0 0.1643812857223085 0 0 
887 0 0.1561813282858494 0 0 
888 0 0.1479813708493903 0 0 
889 0 0.1397814134129312 0 0 
890 0 0.131581455976472 0 0 
891 0 0.1233814985400129 0 0 
892 1 0.02780612920643285 0 0 
893 0.9999999999999999 0.03664039685659797 0 0 
894 0.9999999999999997 0.04547466450676308 0 0 
895 0.9999999999999998 0.05430893215692821 0 0 
896 0.9999999999999998 0.06314319980709332 0 0 
897 0.9999999999999999 0.07197746745725846 0 0 
898 1 0.08081173510742359 0 0 
899 1 0.08964600275758872 0 0 
900 1 0.09848027040775384 0 0 
901 1 0.107314538057919 0 0 
902 1 0.1161488057080841 0 0 
903 1 0.1249830733582492 0 0 
904 1 0.1338173410084143 0 0 
905 1 0.1426516086585795 0 0 
906 1 0.1514858763087445 0 0 
907 1 0.1603201439589097 0 0 
908 0.9999999999999998 0.1691544116090748 0 0 
909 0.9999999999999999 0.1779886792592399 0 0 
910 1 0.1868229469094051 0 0 
911 1 0.1956572145595702 0 0 
912 1 0.2044914822097354 0 0 
913 1 0.2133257498599005 0 0 
914 1 0.2221600175100655 0 0 
915 1 0.2309942851602307 0 0 
916 0.9999999999999998 0.2398285528103958 0 0 
917 0.9999999999999998 0.2486628204605608 0 0 
918 0.9999999999999998 0.257497088110726 0 0 
919 1 0.2663313557608912 0 0 
920 1 0.2751656234110562 0 0 
921 1 0.2839998910612214 0 0 
922 1 0.2928341587113866 0 0 
923 1 0.3016684263615517 0 0 
924 1 0.3105026940117168 0 0 
925 1 0.3193369616618819 0 0 
926 1 0.328171229312047 0 0 
927 1 0.3370054969622121 0 0 
928 0.9999999999999999 0.3458397646123771 0 0 
929 1 0.3546740322625425 0 0 
930 0.9999999999999999 0.3635082999127074 0 0 
931 1 0.3723425675628726 0 0 
932 1 0.3811768352130379 0 0 
933 1 0.3900111028632029 0 0 
934 1 0.398845370513368 0 0 
935 1 0.4076796381635331 0 0 
936 0.9999999999999999 0.4165139058136982 0 0 
937 0.9999999999999999 0.4253481734638633 0 0 
938 1 0.4341824411140285 0 0 
939 0.9999999999999999 0.4430167087641935 0 0 
940 1 0.4518509764143587 0 0 
941 1 0.4606852440645239 0 0 
942 1 0.4695195117146891 0 0 
943 1 0.4783537793648542 0 0 
944 1 0.4871880470150191 0 0 
945 1 0.4960223146651842 0 0 
946 1 0.5048565823153494 0 0 
947 1 0.5136908499655146 0 0 
948 1 0.5225251176156797 0 0 
949 1 0.5313593852658449 0 0 
950 1 0.54019365291601 0 0 
951 1 0.5490279205661751 0 0 
952 1 0.5578621882163403 0 0 
953 1 0.5666964558665054 0 0 
954 1 0.5755307235166705 0 0 
955 1 0.5843649911668356 0 0 
956 1 0.5931992588170006 0 0 
957 0.9999999999999999 0.6020335264671657 0 0 
958 0.9999999999999997 0.6108677941173306 0 0 
959 0.9999999999999999 0.619702061767496 0 0 
960 0.9999999999999998 0.628536329417661 0 0 
961 0.9999999999999999 0.6373705970678264 0 0 
962 1 0.6462048647179914 0 0 
963 1 0.6550391323681564 0 0 
964 1 0.6638734000183217 0 0 
965 1 0.6727076676684868 0 0 
966 1 0.681541935318652 0 0 
967 1 0.6903762029688172 0 0 
968 0.9999999999999999 0.6992104706189821 0 0 
969 1 0.7080447382691473 0 0 
970 1 0.7168790059193122 0 0 
971 1 0.7257132735694778 0 0 
972 1 0.7345475412196427 0 0 
973 1 0.743381808869808 0 0 
974 1.000000000000001 0.7522160765199731 0 0 
975 1.000000000000001 0.7610503441701383 0 0 
976 1 0.7698846118203033 0 0 
977 1 0.7787188794704685 0 0 
978 1.000000000000001 0.7875531471206336 0 0 
979 1 0.7963874147707987 0 0 
980 1 0.8052216824209639 0 0 
981 1 0.8140559500711286 0 0 
982 1 0.8228902177212937 0 0 
983 0.9999999999999999 0.8317244853714588 0 0 
984 1 0.8405587530216239 0 0 
985 0.9999999999999998 0.8493930206717889 0 0 
986 0.9999999999999999 0.8582272883219542 0 0 
987 1 0.8670615559721193 0 0 
988 0.9999999999999998 0.8758958236222842 0 0 
989 1 0.8847300912724495 0 0 
990 1 0.8935643589226147 0 0 
991 0.9954832156060349 0.8935630819723646 0 0 
992 0.9909692110684647 0.8935650352412585 0 0 
993 0.9864552072201626 0.8935681695713757 0 0 
994 0.9819412043520257 0.8935724800096034 0 0 
995 0.9774272027549503 0.8935779616028297 0 0 
996 0.9729132027198326 0.8935846093979417 0 0 
997 0.9683992045375693 0.8935924184418278 0 0 
998 0.9638852084990569 0.8936013837813757 0 0 
999 0.9593712148951913 0.8936115004634725 0 0 
1000 0.9548572240168691 0.8936227635350058 0 0 
1001 0.9503432361512141 0.8936351673232615 0 0 
1002 0.9458292515237874 0.8936486944123512 0 0 
1003 0.9413152703099961 0.8936633178198694 0 0 
1004 0.9368012926837884 0.8936790102848839 0 0 
1005 0.9322873188191123 0.8936957445464622 0 0 
1006 0.9277733488878288 0.8937134931383168 0 0 
1007 0.9232593829627499 0.8937322188454558 0 0 
1008 0.918745420976558 0.8937518706608673 0 0 
1009 0.9142314628513208 0.8937723965328801 0 0 
1010 0.9097175085091062 0.8937937444098238 0 0 
1011 0.9052035578720599 0.8938158622655266 0 0 
1012 0.9006896108932526 0.8938387081955568 0 0 
1013 0.8961756676037023 0.8938622658083216 0 0 
1014 0.891661728046518 0.8938865226694068 0 0 
1015 0.8871477922648079 0.8939114663443967 0 0 
1016 0.8826338603016808 0.8939370843988761 0 0 
1017 0.8781199320842292 0.8939633470177963 0 0 
1018 0.873606006993905 0.893990142642736 0 0 
1019 0.8690920842518943 0.8940173357055272 0 0 
1020 0.864578163079362 0.8940447906347904 0 0 
1021 0.8600642426974729 0.8940723718591465 0 0 
1022 0.8555503223770877 0.8940999530196686 0 0 
1023 0.8510364018434351 0.8941274919868608 0 0 
1024 0.8465224810652829 0.8941549917778104 0 0 
1025 0.8420085600137166 0.8941824558391518 0 0 
1026 0.8374946386598213 0.894209887617519 0 0 
1027 0.8329807169476557 0.8942372851771403 0 0 
1028 0.8284667942658848 0.8942645359734069 0 0 
1029 0.8239528694822477 0.8942914237176505 0 0 
1030 0.8194389414443615 0.8943177281135205 0 0 
1031 0.8149250089998425 0.8943432288646669 0 0 
1032 0.8104110710024999 0.8943677066517882 0 0 
1033 0.805897126735901 0.8943910099625405 0 0 
1034 0.8013831761855585 0.8944130980366624 0 0 
1035 0.7968692194017566 0.8944339403335144 0 0 
1036 0.7923552564347787 0.8944535063124572 0 0 
1037 0.7878412873349425 0.8944717653816692 0 0 
1038 0.7833273121931364 0.894488624301927 0 0 
1039 0.7788133312197468 0.8945038053130917 0 0 
1040 0.7742993446470534 0.8945169968512349 0 0 
1041 0.7697853527073342 0.8945278873524266 0 0 
1042 0.7652713556328684 0.894536165252737 0 0 
1043 0.7607573538509373 0.8945415415863409 0 0 
1044 0.7562433488689102 0.8945438525542326 0 0 
1045 0.7517293425660058 0.8945429774496412 0 0 
1046 0.7472153368217871 0.8945387956056255 0 0 
1047 0.7427013335158167 0.8945311863552441 0 0 
1048 0.7381873348610341 0.894520008044427 0 0 
1049 0.7336733467450981 0.8945048876835952 0 0 
1050 0.7291593773344713 0.8944853088250587 0 0 
1051 0.72464543482967 0.8944607528773546 0 0 
1052 0.7201315274312104 0.8944307012490198 0 0 
1053 0.7156176633922601 0.8943946411230908 0 0 
1054 0.7111038523615286 0.8943522127388788 0 0 
1055 0.7065901054942298 0.8943032215616085 0 0 
1056 0.7020764340204608 0.8942474812693983 0 0 
1057 0.6975628491703196 0.8941848055403674 0 0 
1058 0.6930493622347085 0.8941150067666062 0 0 
1059 0.688535991187029 0.8940377560041813 0 0 
1060 0.6840227666310813 0.8939524571740814 0 0 
1061 0.6795097205743997 0.8938584845080777 0 0 
1062 0.6749968850245178 0.8937552122379401 0 0 
1063 0.6704842919893917 0.8936420145884832 0 0 
1064 0.6659719775729696 0.8935181982035354 0 0 
1065 0.6614599920218408 0.8933828363833134 0 0 
1066 0.6569483886327887 0.8932349521019923 0 0 
1067 0.6524372207025967 0.8930735683337485 0 0 
1068 0.6479265415280482 0.8928977080527573 0 0 
1069 0.6434164032523849 0.8927066629417945 0 0 
1070 0.6389068504715719 0.8925014827640552 0 0 
1071 0.6343979247469669 0.8922839241712919 0 0 
1072 0.6298896676316701 0.8920557457387446 0 0 
1073 0.6253821206787817 0.8918187060416537 0 0 
1074 0.6208753261818014 0.8915742123075285 0 0 
1075 0.6163693363809819 0.8913189516489137 0 0 
1076 0.61186421063312 0.8910462341061776 0 0 
1077 0.607360008449402 0.8907492964559205 0 0 
1078 0.6028567893410141 0.8904213754747434 0 0 
1079 0.5983546072122755 0.8900561543445593 0 0 
1080 0.593853318398017 0.8896630462560349 0 0 
1081 0.5893525337969761 0.8892710054328191 0 0 
1082 0.5848518489862353 0.8889102059719479 0 0 
1083 0.5803508595428781 0.8886108219704579 0 0 
1084 0.5758491610439871 0.8884030275253847 0 0 
1085 0.5713463490666452 0.8883169967337649 0 0 
1086 0.5668420191879355 0.8883829036926344 0 0 
1087 0.5623357669849409 0.8886309224990296 0 0 
1088 0.5578271880347444 0.8890912272499866 0 0 
1089 0.562052939686927 0.885612267932399 0 0 
1090 0.5681070780476717 0.878839225626981 0 0 
1091 0.5723535085813101 0.8706239974510519 0 0 
1092 0.5755769099835265 0.8619613893005498 0 0 
1093 0.5781035299682605 0.8530812894352161 0 0 
1094 0.5801023339725003 0.8440626505708053 0 0 
1095 0.5816839784048304 0.8349635784016451 0 0 
1096 0.5829171637325358 0.8258101759931242 0 0 
1097 0.583850746334119 0.8166215883418078 0 0 
1098 0.5845197745303088 0.8074099122204056 0 0 
1099 0.5849507450334065 0.7981840549580265 0 0 
1100 0.5851641704149992 0.7889506024000478 0 0 
1101 0.5851763700426948 0.7797146952233589 0 0 
1102 0.5850005941946239 0.7704804540665321 0 0 
1103 0.5846478022752695 0.7612512817511304 0 0 
1104 0.5841272031776626 0.7520300537933369 0 0 
1105 0.583446644235544 0.7428192505770271 0 0 
1106 0.5826128962697129 0.7336210490444123 0 0 
1107 0.5816318668921833 0.7244373884943816 0 0 
1108 0.5805087627818691 0.7152700185895398 0 0 
1109 0.5792482150522424 0.7061205350854769 0 0 
1110 0.577854377421554 0.6969904068488565 0 0 
1111 0.5763310040312348 0.6878809965984012 0 0 
1112 0.5746815118145042 0.6787935770426202 0 0 
1113 0.5729090309846784 0.669729343592336 0 0 
1114 0.571016446279669 0.6606894244893401 0 0 
1115 0.5690064309361564 0.651674888961689 0 0 
1116 0.566881474888964 0.6426867538545545 0 0 
1117 0.5646439083404708 0.6337259890715242 0 0 
1118 0.5622959215902812 0.6247935220771911 0 0 
1119 0.5598395818061614 0.6158902416582877 0 0 
1120 0.5572768473286082 0.6070170010724583 0 0 
1121 0.5546095797723732 0.5981746207704898 0 0 
1122 0.5518395549157107 0.5893638905166882 0 0 
1123 0.5489684702468628 0.5805855719753694 0 0 
1124 0.5459979584531642 0.5718403980772915 0 0 
1125 0.5429295730073918 0.5631290832763136 0 0 
1126 0.5397648739337861 0.5544522918634855 0 0 
1127 0.5365051328450307 0.5458107631684859 0 0 
1128 0.5331524665133074 0.5372048459943409 0 0 
1129 0.5297055779466537 0.5286362612750183 0 0 
1130 0.5261781543666045 0.520100484269286 0 0 
1131 0.5225924732044235 0.5115890303039151 0 0 
1132 0.5189529785866303 0.5031004453701289 0 0 
1133 0.5152601886996875 0.4946349092213807 0 0 
1134 0.5115152068485757 0.4861923322064086 0 0 
1135 0.5077189304233177 0.4777726954358794 0 0 
1136 0.503872255556814 0.4693759645075187 0 0 
1137 0.4999760283208508 0.461002111645513 0 0 
1138 0.4960310595203171 0.4526511105133239 0 0 
1139 0.4920381233931904 0.4443229378320845 0 0 
1140 0.4879979600806732 0.4360175733087574 0 0 
1141 0.4839112769984498 0.4277349999669407 0 0 
1142 0.4797787503127987 0.4194752043720318 0 0 
1143 0.4756010262497598 0.4112381768733519 0 0 
1144 0.4713787223163221 0.4030239118348825 0 0 
1145 0.4671124284283737 0.3948324078616778 0 0 
1146 0.462802707958045 0.3866636680207973 0 0 
1147 0.458450098707742 0.3785177000574009 0 0 
1148 0.4540551138179864 0.3703945166062606 0 0 
1149 0.4496182426160326 0.3622941353988256 0 0 
1150 0.4451399514107632 0.3542165794660746 0 0 
1151 0.4406206842386128 0.3461618773374296 0 0 
1152 0.4360608635653463 0.3381300632358727 0 0 
1153 0.4314608909478397 0.3301211772694086 0 0 
1154 0.426821147659586 0.3221352656190243 0 0 
1155 0.4221419952833064 0.314172380723265 0 0 
1156 0.4174237762737177 0.3062325814595449 0 0 
1157 0.4126668144932251 0.2983159333222954 0 0 
1158 0.4078714157230739 0.2904225085980416 0 0 
1159 0.4030378681522515 0.2825523865374946 0 0 
1160 0.3981664428462446 0.2747056535247285 0 0 
1161 0.3932573941975794 0.266882403243514 0 0 
1162 0.3883109603599051 0.2590827368408625 0 0 
1163 0.3833273636672462 0.2513067630878299 0 0 
1164 0.3783068110399197 0.2435545985376283 0 0 
1165 0.3732494943784932 0.2358263676810745 0 0 
1166 0.3681555909470627 0.2281222030994048 0 0 
1167 0.3630252637470248 0.2204422456144838 0 0 
1168 0.357858661882459 0.2127866444363961 0 0 
1169 0.3526559209180705 0.2051555573085008 0 0 
1170 0.3474171632308922 0.1975491506496908 0 0 
1171 0.3421424983557142 0.1899675996947848 0 0 
1172 0.3368320233284327 0.1824110886295829 0 0 
1173 0.3314858230158086 0.1748798107331805 0 0 
1174 0.3261039704768486 0.1673739684817875 0 0 
1175 0.3206865271969723 0.1598937737779589 0 0 
1176 0.3152335437611017 0.1524394477239664 0 0 
1177 0.3097450589880567 0.1450112219724896 0 0 
1178 0.3042211043376679 0.1376093346542708 0 0 
1179 0.2986616906005214 0.1302340445127688 0 0 
1180 0.2930668525228488 0.1228855854894106 0 0 
1181 0.2874365109395626 0.115564308874448 0 0 
1182 0.2817708784760255 0.1082702667673903 0 0 
1183 0.2760693923606395 0.101004309394181 0 0 
1184 0.2703329155705095 0.09376582317931258 0 0 
1185 0.2645626128391612 0.08655388644534981 0 0 
1186 0.2587361225783833 0.0793917607246255 0 0 
1187 1 0.8946394664082452 0 0 
1188 1 0.8957145738938751 0 0 
1189 1 0.8967896813795053 0 0 
1190 1 0.8978647888651358 0 0 
1191 1 0.8989398963507658 0 0 
1192 1 0.9000150038363959 0 0 
1193 1 0.9010901113220261 0 0 
1194 1 0.9021652188076562 0 0 
1195 1 0.9032403262932862 0 0 
1196 1 0.9043154337789163 0 0 
1197 1 0.9053905412645463 0 0 
1198 0.9999999999999998 0.9064656487501764 0 0 
1199 0.9999999999999996 0.9075407562358063 0 0 
1200 0.9999999999999997 0.9086158637214364 0 0 
1201 0.9999999999999994 0.9096909712070664 0 0 
1202 0.9999999999999998 0.9107660786926967 0 0 
1203 0.9999999999999997 0.9118411861783268 0 0 
1204 0.9999999999999999 0.9129162936639573 0 0 
1205 0.9999999999999999 0.9139914011495875 0 0 
1206 1 0.9150665086352178 0 0 
1207 1 0.916141616120848 0 0 
1208 1 0.9172167236064783 0 0 
1209 1 0.9182918310921085 0 0 
1210 1 0.9193669385777385 0 0 
1211 1 0.9204420460633689 0 0 
1212 1 0.9215171535489988 0 0 
1213 1 0.9225922610346292 0 0 
1214 1 0.9236673685202594 0 0 
1215 1 0.9247424760058895 0 0 
1216 1.000000000000001 0.9258175834915197 0 0 
1217 1.000000000000001 0.9268926909771499 0 0 
1218 1 0.9279677984627799 0 0 
1219 1 0.92904290594841 0 0 
1220 1 0.9301180134340401 0 0 
1221 1 0.9311931209196701 0 0 
1222 0.9999999999999998 0.9322682284053001 0 0 
1223 0.9999999999999998 0.9333433358909302 0 0 
1224 0.9999999999999999 0.9344184433765605 0 0 
1225 0.9999999999999998 0.9354935508621905 0 0 
1226 1 0.9365686583478212 0 0 
1227 1 0.9376437658334512 0 0 
1228 1 0.9387188733190813 0 0 
1229 1 0.9397939808047115 0 0 
1230 1 0.9408690882903418 0 0 
1231 1 0.9419441957759718 0 0 
1232 1 0.9430193032616018 0 0 
1233 1 0.9440944107472319 0 0 
1234 1 0.9451695182328621 0 0 
1235 1 0.9462446257184924 0 0 
1236 1 0.9473197332041228 0 0 
1237 1 0.9483948406897525 0 0 
1238 1 0.9494699481753829 0 0 
1239 1 0.9505450556610131 0 0 
1240 1 0.9516201631466429 0 0 
1241 1 0.952695270632273 0 0 
1242 1 0.9537703781179031 0 0 
1243 1 0.9548454856035333 0 0 
1244 0.9999999999999998 0.9559205930891633 0 0 
1245 1 0.9569957005747937 0 0 
1246 0.9999999999999999 0.9580708080604237 0 0 
1247 1 0.9591459155460541 0 0 
1248 0.9999999999999999 0.9602210230316842 0 0 
1249 1 0.9612961305173144 0 0 
1250 0.9999999999999999 0.9623712380029447 0 0 
1251 0.9999999999999999 0.9634463454885747 0 0 
1252 0.9999999999999999 0.9645214529742048 0 0 
1253 0.9999999999999997 0.9655965604598347 0 0 
1254 0.9999999999999999 0.9666716679454652 0 0 
1255 0.9999999999999999 0.9677467754310954 0 0 
1256 0.9999999999999999 0.9688218829167257 0 0 
1257 1 0.9698969904023561 0 0 
1258 1 0.9709720978879862 0 0 
1259 1 0.9720472053736163 0 0 
1260 1 0.9731223128592464 0 0 
1261 1 0.9741974203448767 0 0 
1262 1 0.9752725278305064 0 0 
1263 1 0.9763476353161366 0 0 
1264 1 0.9774227428017668 0 0 
1265 1 0.9784978502873968 0 0 
1266 1 0.979572957773027 0 0 
1267 1 0.9806480652586573 0 0 
1268 1 0.9817231727442876 0 0 
1269 0.9999999999999999 0.9827982802299176 0 0 
1270 0.9999999999999999 0.9838733877155477 0 0 
1271 1 0.9849484952011781 0 0 
1272 0.9999999999999998 0.986023602686808 0 0 
1273 1 0.9870987101724381 0 0 
1274 1 0.9881738176580682 0 0 
1275 1 0.9892489251436986 0 0 
1276 1 0.9903240326293287 0 0 
1277 1 0.991399140114959 0 0 
1278 1 0.9924742476005889 0 0 
1279 1 0.993549355086219 0 0 
1280 0.9999999999999998 0.994624462571849 0 0 
1281 1 0.9956995700574793 0 0 
1282 1 0.9967746775431097 0 0 
1283 1 0.9978497850287398 0 0 
1284 1 0.9989248925143699 0 0 
1285 1 1 0 0 
1286 0.995527613483717 1 0 0 
1287 0.9910552269674339 1 0 0 
1288 0.9865828404511507 1 0 0 
1289 0.9821104539348673 1 0 0 
1290 0.9776380674185839 1 0 0 
1291 0.9731656809023006 1 0 0 
1292 0.9686932943860174 1 0 0 
1293 0.9642209078697336 1 0 0 
1294 0.9597485213534505 1 0 0 
1295 0.955276134837167 1 0 0 
1296 0.9508037483208835 1 0 0 
1297 0.9463313618046002 1 0 0 
1298 0.9418589752883171 1 0 0 
1299 0.9373865887720337 1 0 0 
1300 0.9329142022557502 1 0 0 
1301 0.928441815739467 0.9999999999999999 0 0 
1302 0.9239694292231838 1 0 0 
1303 0.9194970427069005 0.9999999999999999 0 0 
1304 0.9150246561906173 1 0 0 
1305 0.910552269674334 1 0 0 
1306 0.9060798831580508 1 0 0 
1307 0.9016074966417673 0.9999999999999999 0 0 
1308 0.8971351101254842 1 0 0 
1309 0.892662723609201 1 0 0 
1310 0.8881903370929177 1 0 0 
1311 0.8837179505766343 1 0 0 
1312 0.8792455640603509 1 0 0 
1313 0.8747731775440672 0.9999999999999999 0 0 
1314 0.8703007910277841 1 0 0 
1315 0.8658284045115007 0.9999999999999998 0 0 
1316 0.8613560179952173 1 0 0 
1317 0.8568836314789341 0.9999999999999998 0 0 
1318 0.8524112449626506 0.9999999999999999 0 0 
1319 0.8479388584463673 0.9999999999999998 0 0 
1320 0.8434664719300839 0.9999999999999998 0 0 
1321 0.8389940854138009 0.9999999999999999 0 0 
1322 0.8345216988975176 1 0 0 
1323 0.8300493123812344 1 0 0 
1324 0.8255769258649511 1 0 0 
1325 0.8211045393486681 1 0 0 
1326 0.8166321528323846 1 0 0 
1327 0.8121597663161015 1 0 0 
1328 0.8076873797998184 1 0 0 
1329 0.803214993283535 1 0 0 
1330 0.7987426067672514 0.9999999999999998 0 0 
1331 0.7942702202509683 0.9999999999999999 0 0 
1332 0.7897978337346848 1 0 0 
1333 0.7853254472184016 1 0 0 
1334 0.7808530607021182 0.9999999999999999 0 0 
1335 0.776380674185835 1 0 0 
1336 0.7719082876695517 1 0 0 
1337 0.7674359011532684 1 0 0 
1338 0.762963514636985 1 0 0 
1339 0.7584911281207017 1 0 0 
1340 0.7540187416044185 1 0 0 
1341 0.7495463550881349 1 0 0 
1342 0.7450739685718518 1 0 0 
1343 0.7406015820555683 1 0 0 
1344 0.7361291955392849 0.9999999999999999 0 0 
1345 0.7316568090230017 1 0 0 
1346 0.7271844225067182 0.9999999999999998 0 0 
1347 0.7227120359904351 0.9999999999999998 0 0 
1348 0.7182396494741519 0.9999999999999999 0 0 
1349 0.7137672629578685 0.9999999999999999 0 0 
1350 0.7092948764415851 0.9999999999999999 0 0 
1351 0.7048224899253021 1 0 0 
1352 0.7003501034090186 1 0 0 
1353 0.6958777168927353 1 0 0 
1354 0.6914053303764518 0.9999999999999999 0 0 
1355 0.6869329438601686 1 0 0 
1356 0.6824605573438852 1 0 0 
1357 0.6779881708276021 1 0 0 
1358 0.6735157843113189 1 0 0 
1359 0.6690433977950354 1 0 0 
1360 0.6645710112787522 1 0 0 
1361 0.6600986247624689 1 0 0 
1362 0.6556262382461856 1 0 0 
1363 0.6511538517299024 1 0 0 
1364 0.646681465213619 1 0 0 
1365 0.6422090786973358 1 0 0 
1366 0.6377366921810524 1 0 0 
1367 0.633264305664769 0.9999999999999999 0 0 
1368 0.6287919191484856 0.9999999999999998 0 0 
1369 0.6243195326322024 1 0 0 
1370 0.6198471461159192 1 0 0 
1371 0.6153747595996358 1 0 0 
1372 0.6109023730833525 1 0 0 
1373 0.6064299865670693 1 0 0 
1374 0.6019576000507859 0.9999999999999999 0 0 
1375 0.5974852135345026 1 0 0 
1376 0.5930128270182192 0.9999999999999999 0 0 
1377 0.5885404405019359 0.9999999999999999 0 0 
1378 0.5840680539856525 0.9999999999999998 0 0 
1379 0.5795956674693692 1 0 0 
1380 0.575123280953086 0.9999999999999999 0 0 
1381 0.5706508944368025 0.9999999999999998 0 0 
1382 0.5661785079205193 0.9999999999999999 0 0 
1383 0.561706121404236 1 0 0 
1384 0.5572337348879528 1 0 0 
1385 0.5572330760126213 0.9988848569926856 0 0 
1386 0.5572321280964374 0.997770647868776 0 0 
1387 0.5572305791617258 0.9966564394086159 0 0 
1388 0.5572284277759882 0.9955422319458093 0 0 
1389 0.5572256725067265 0.9944280258139592 0 0 
1390 0.5572223119214424 0.993313821346669 0 0 
1391 0.5572183445876379 0.9921996188775422 0 0 
1392 0.5572137690728142 0.9910854187401822 0 0 
1393 0.5572085839444734 0.9899712212681924 0 0 
1394 0.5572027877701171 0.9888570267951761 0 0 
1395 0.5571963791423908 0.9877428356556827 0 0 
1396 0.557189357063213 0.9866286481996623 0 0 
1397 0.5571817208673695 0.9855144647895896 0 0 
1398 0.5571734698993034 0.9844002857883027 0 0 
1399 0.5571646035034588 0.9832861115586405 0 0 
1400 0.5571551210903068 0.9821719424621049 0 0 
1401 0.5571450251859662 0.9810577787971611 0 0 
1402 0.5571343227135256 0.9799436207733124 0 0 
1403 0.5571230209279383 0.9788294685933473 0 0 
1404 0.5571111270841573 0.9777153224600554 0 0 
1405 0.5570986483884048 0.9766011825769628 0 0 
1406 0.5570855731002524 0.9754870494346244 0 0 
1407 0.5570718418921932 0.9743729242445027 0 0 
1408 0.557057388084467 0.9732588083294408 0 0 
1409 0.5570421449973144 0.9721447030122823 0 0 
1410 0.5570260459509753 0.9710306096158708 0 0 
1411 0.5570090252818816 0.9699165295655913 0 0 
1412 0.5569910220833209 0.9688024647668336 0 0 
1413 0.5569719768393 0.967688417265322 0 0 
1414 0.5569518300339972 0.9665743891067983 0 0 
1415 0.5569305221515901 0.9654603823370037 0 0 
1416 0.5569079959992276 0.9643463990249197 0 0 
1417 0.5568842154889349 0.9632324414506639 0 0 
1418 0.5568591557870515 0.9621185120069452 0 0 
1419 0.5568327921651361 0.9610046130875245 0 0 
1420 0.5568050998947489 0.9598907470861627 0 0 
1421 0.5567760592700634 0.9587769162301655 0 0 
1422 0.5567457527926682 0.9576631193595554 0 0 
1423 0.5567143582808866 0.9565493521554387 0 0 
1424 0.556682057195415 0.9554356101782089 0 0 
1425 0.5566490309969503 0.9543218889882588 0 0 
1426 0.5566154599973908 0.9532081841757736 0 0 
1427 0.55658144629916 0.9520944933591092 0 0 
1428 0.5565469651186203 0.9509808174471003 0 0 
1429 0.5565119800676059 0.9498671576495177 0 0 
1430 0.556476454757951 0.9487535151761317 0 0 
1431 0.5564403528103912 0.9476398912364892 0 0 
1432 0.5564036479678807 0.9465262867859653 0 0 
1433 0.5563663435427867 0.9454127020374422 0 0 
1434 0.5563284482180598 0.9442991370689441 0 0 
1435 0.5562899706766509 0.9431855919584957 0 0 
1436 0.5562509196015109 0.9420720667841223 0 0 
1437 0.5562113021839065 0.9409585616660494 0 0 
1438 0.5561711174316217 0.9398450769560214 0 0 
1439 0.5561303615606611 0.9387316130847639 0 0 
1440 0.5560890307846484 0.9376181704830722 0 0 
1441 0.5560471213172063 0.9365047495817383 0 0 
1442 0.5560046295291218 0.9353913508029323 0 0 
1443 0.5559615535024716 0.9342779744749167 0 0 
1444 0.5559178923708087 0.9331646208682538 0 0 
1445 0.5558736452829925 0.9320512902526675 0 0 
1446 0.5558288113878829 0.9309379828978798 0 0 
1447 0.5557833882466482 0.9298246991477038 0 0 
1448 0.5557373321133617 0.9287114412735594 0 0 
1449 0.5556905550843256 0.9275982136075004 0 0 
1450 0.5556429670972214 0.9264850205823125 0 0 
1451 0.5555944780897295 0.9253718666307824 0 0 
1452 0.555544998280933 0.9242587561753879 0 0 
1453 0.5554944676613311 0.9231456925479897 0 0 
1454 0.5554428818728514 0.9220326770417688 0 0 
1455 0.5553902426587437 0.9209197107263966 0 0 
1456 0.5553365517622578 0.9198067946715437 0 0 
1457 0.5552818109269552 0.9186939299468551 0 0 
1458 0.5552260242743913 0.9175811174212427 0 0 
1459 0.5551692040316479 0.916468357279407 0 0 
1460 0.5551113641512749 0.9153556495603981 0 0 
1461 0.5550525185858215 0.9142429943032649 0 0 
1462 0.5549926812878372 0.913130391547057 0 0 
1463 0.5549318532829606 0.9120178421157653 0 0 
1464 0.5548699522341606 0.9109053518952858 0 0 
1465 0.5548068627246299 0.9097929287801665 0 0 
1466 0.55474246925412 0.9086805806700232 0 0 
1467 0.5546766563223826 0.9075683154644716 0 0 
1468 0.554609306953843 0.9064561412678507 0 0 
1469 0.5545402847135831 0.9053440688847789 0 0 
1470 0.5544694394212699 0.9042321110272604 0 0 
1471 0.5543966206074969 0.9031202804474121 0 0 
1472 0.5543216778028577 0.9020085898973511 0 0 
1473 0.554244460656853 0.9008970522029293 0 0 
1474 0.5541648228882522 0.8997856827133691 0 0 
1475 0.5540826232024455 0.8986744998701165 0 0 
1476 0.5539977206095817 0.8975635223035995 0 0 
1477 0.5539099741198096 0.8964527686442465 0 0 
1478 0.5538192427432777 0.8953422575224853 0 0 
1479 0.5537253854901351 0.8942320075687441 0 0 
1480 0.5536282613705299 0.8931220374134509 0 0 
1481 0.5535277293946114 0.892012365687034 0 0 
1482 0.5534236485725279 0.8909030110199215 0 0 
1483 0.5516051113032261 1 0 0 
1484 0.5459764877184992 1 0 0 
1485 0.5403478641337724 1 0 0 
1486 0.5347192405490457 1 0 0 
1487 0.5290906169643189 1 0 0 
1488 0.523461993379592 1 0 0 
1489 0.5178333697948653 1 0 0 
1490 0.5122047462101385 1 0 0 
1491 0.5065761226254117 1 0 0 
1492 0.5009474990406849 1 0 0 
1493 0.4953188754559583 1 0 0 
1494 0.4896902518712313 1 0 0 
1495 0.4840616282865046 1 0 0 
1496 0.4784330047017777 1 0 0 
1497 0.4728043811170509 1 0 0 
1498 0.4671757575323241 0.9999999999999999 0 0 
1499 0.4615471339475973 0.9999999999999999 0 0 
1500 0.4559185103628705 0.9999999999999999 0 0 
1501 0.4502898867781436 0.9999999999999998 0 0 
1502 0.4446612631934168 0.9999999999999998 0 0 
1503 0.4390326396086902 1 0 0 
1504 0.4334040160239633 0.9999999999999997 0 0 
1505 0.4277753924392366 0.9999999999999999 0 0 
1506 0.4221467688545099 1 0 0 
1507 0.4165181452697832 1 0 0 
1508 0.4108895216850563 1 0 0 
1509 0.4052608981003294 1 0 0 
1510 0.3996322745156025 0.9999999999999999 0 0 
1511 0.3940036509308757 1 0 0 
1512 0.3883750273461488 0.9999999999999998 0 0 
1513 0.382746403761422 1 0 0 
1514 0.3771177801766952 0.9999999999999998 0 0 
1515 0.3714891565919685 0.9999999999999999 0 0 
1516 0.3658605330072416 0.9999999999999998 0 0 
1517 0.3602319094225149 0.9999999999999998 0 0 
1518 0.3546032858377882 0.9999999999999999 0 0 
1519 0.3489746622530614 1 0 0 
1520 0.3433460386683346 1 0 0 
1521 0.3377174150836078 1 0 0 
1522 0.332088791498881 1 0 0 
1523 0.3264601679141542 1 0 0 
1524 0.3208315443294275 1 0 0 
1525 0.3152029207447007 1 0 0 
1526 0.3095742971599739 1 0 0 
1527 0.303945673575247 0.9999999999999998 0 0 
1528 0.2983170499905202 0.9999999999999999 0 0 
1529 0.2926884264057934 1 0 0 
1530 0.2870598028210667 1 0 0 
1531 0.2814311792363399 0.9999999999999999 0 0 
1532 0.275802555651613 1 0 0 
1533 0.2701739320668862 1 0 0 
1534 0.2645453084821595 1 0 0 
1535 0.2589166848974326 1 0 0 
1536 0.2532880613127059 1 0 0 
1537 0.2476594377279791 1 0 0 
1538 0.2420308141432522 1 0 0 
1539 0.2364021905585255 1 0 0 
1540 0.2307735669737987 1 0 0 
1541 0.2251449433890718 0.9999999999999999 0 0 
1542 0.2195163198043451 1 0 0 
1543 0.2138876962196182 0.9999999999999998 0 0 
1544 0.2082590726348914 0.9999999999999998 0 0 
1545 0.2026304490501646 0.9999999999999999 0 0 
1546 0.1970018254654378 0.9999999999999999 0 0 
1547 0.191373201880711 0.9999999999999999 0 0 
1548 0.1857445782959843 1 0 0 
1549 0.1801159547112575 1 0 0 
1550 0.1744873311265306 1 0 0 
1551 0.1688587075418038 0.9999999999999999 0 0 
1552 0.163230083957077 1 0 0 
1553 0.1576014603723502 1 0 0 
1554 0.1519728367876234 1 0 0 
1555 0.1463442132028966 1 0 0 
1556 0.1407155896181699 1 0 0 
1557 0.135086966033443 1 0 0 
1558 0.1294583424487163 1 0 0 
1559 0.1238297188639895 1 0 0 
1560 0.1182010952792627 1 0 0 
1561 0.1125724716945359 1 0 0 
1562 0.1069438481098091 1 0 0 
1563 0.1013152245250823 1 0 0 
1564 0.09568660094035546 0.9999999999999999 0 0 
1565 0.09005797735562868 0.9999999999999998 0 0 
1566 0.08442935377090194 1 0 0 
1567 0.07880073018617509 1 0 0 
1568 0.07317210660144832 1 0 0 
1569 0.0675434830167215 1 0 0 
1570 0.06191485943199472 1 0 0 
1571 0.05628623584726788 0.9999999999999999 0 0 
1572 0.05065761226254112 1 0 0 
1573 0.04502898867781435 0.9999999999999999 0 0 
1574 0.03940036509308751 0.9999999999999999 0 0 
1575 0.03377174150836073 0.9999999999999998 0 0 
1576 0.0281431179236339 1 0 0 
1577 0.02251449433890713 0.9999999999999999 0 0 
1578 0.01688587075418035 0.9999999999999998 0 0 
1579 0.01125724716945353 0.9999999999999999 0 0 
1580 0.005628623584726761 1 0 0 
1581 0 1 0 0 
1582 0 0.999262397245586 0 0 
1583 0 0.9977871917367578 0 0 
1584 0 0.9970495889823433 0 0 
1585 0 0.9963119862279295 0 0 
1586 0 0.9948367807191014 0 0 
1587 0 0.9940991779646874 0 0 
1588 0 0.9933615752102736 0 0 
1589 0 0.9918863697014453 0 0 
1590 0 0.9911487669470311 0 0 
1591 0 0.9904111641926171 0 0 
1592 0 0.9889359586837887 0 0 
1593 0 0.988198355929375 0 0 
1594 0 0.9874607531749608 0 0 
1595 0 0.9859855476661326 0 0 
1596 0 0.9852479449117184 0 0 
1597 0 0.9837727394028901 0 0 
1598 0 0.9830351366484762 0 0 
1599 0 0.9822975338940623 0 0 
1600 0 0.9808223283852342 0 0 
1601 0 0.9800847256308201 0 0 
1602 0 0.9793471228764061 0 0 
1603 0 0.9778719173675782 0 0 
1604 0 0.977134314613164 0 0 
1605 0 0.97639671185875 0 0 
1606 0 0.9749215063499218 0 0 
1607 0 0.9741839035955077 0 0 
1608 0 0.9734463008410935 0 0 
1609 0 0.9719710953322651 0 0 
1610 0 0.9712334925778512 0 0 
1611 0 0.970495889823437 0 0 
1612 0 0.9690206843146089 0 0 
1613 0 0.9682830815601949 0 0 
1614 0 0.9668078760513669 0 0 
1615 0 0.9660702732969528 0 0 
1616 0 0.965332670542539 0 0 
1617 0 0.9638574650337107 0 0 
1618 0 0.9631198622792967 0 0 
1619 0 0.9623822595248828 0 0 
1620 0 0.9609070540160546 0 0 
1621 0 0.9601694512616404 0 0 
1622 0 0.9594318485072264 0 0 
1623 0 0.957956642998398 0 0 
1624 0 0.9572190402439843 0 0 
1625 0 0.9564814374895702 0 0 
1626 0 0.9550062319807421 0 0 
1627 0 0.9542686292263282 0 0 
1628 0 0.9527934237174998 0 0 
1629 0 0.9520558209630857 0 0 
1630 0 0.9513182182086718 0 0 
1631 0 0.9498430126998431 0 0 
1632 0 0.9491054099454296 0 0 
1633 0 0.9483678071910151 0 0 
1634 0 0.9468926016821873 0 0 
1635 0 0.9461549989277733 0 0 
1636 0 0.9454173961733594 0 0 
1637 0 0.9439421906645312 0 0 
1638 0 0.9432045879101171 0 0 
1639 0 0.9424669851557027 0 0 
1640 0 0.9409917796468745 0 0 
1641 0 0.9402541768924604 0 0 
1642 0 0.9387789713836324 0 0 
1643 0 0.9380413686292183 0 0 
1644 0 0.9373037658748044 0 0 
1645 0 0.9358285603659762 0 0 
1646 0 0.935090957611562 0 0 
1647 0 0.934353354857148 0 0 
1648 0 0.9328781493483198 0 0 
1649 0 0.9321405465939058 0 0 
1650 0 0.9314029438394917 0 0 
1651 0 0.9299277383306634 0 0 
1652 0 0.9291901355762493 0 0 
1653 0 0.9284525328218354 0 0 
1 0 0 0 0.2319504303205493 0 0 0 2 1 -100 
2 0.2319504303205493 0 0 0.2513847053050995 0.07378932088613512 0 0 2 100 -182 
3 -1.852175157773805e-06 0.07378932088613512 0 0.2513847053050995 0.1151806673222019 0 0 2 182 -281 
4 -1.852175157766324e-06 0 0 0 0.1151806673222019 0 0 2 281 -1 
5 0.2319504303205493 0 0 1 0 0 0 2 100 -478 
6 0.9999999999999998 0 0 1 0.01858859162583808 0 0 2 478 -497 
7 0.2513847053050995 0.01858859162583808 0 0.9999999999999999 0.07378932088613512 0 0 2 497 -182 
8 0.2319504303205493 0 0 0.2513847053050995 0.07378932088613512 0 0 2 182 -100 
9 0.2513847053050995 0.0737893208861351 0 0.5533158704383614 0.8897940086117562 0 0 2 182 -694 
10 6.313162833615493e-07 0.8897940086117562 0 0.5533158704383614 0.9269788835533972 0 0 2 694 -793 
11 -1.852175157766324e-06 0.1151806673222019 0 6.31316283359652e-07 0.9269788835533972 0 0 2 793 -281 
12 -1.852175157773805e-06 0.07378932088613512 0 0.2513847053050995 0.1151806673222019 0 0 2 281 -182 
13 0.2513847053050995 0.01858859162583808 0 0.9999999999999999 0.07378932088613512 0 0 2 182 -497 
14 0.9999999999999999 0.01858859162583809 0 1 0.8935643589226147 0 0 2 497 -990 
15 0.5533158704383614 0.8897940086117562 0 1 0.8945429774496412 0 0 2 990 -694 
16 0.2513847053050995 0.0737893208861351 0 0.5849507450334065 0.8897940086117562 0 0 2 694 -182 
17 0.9999999999999999 0.8935643589226147 0 1 1 0 0 2 990 -1285 
18 0.5572337348879528 0.9999999999999999 0 1 1 0 0 2 1285 -1384 
19 0.5533158704383614 0.8897940086117562 0 0.5572337348879528 1 0 0 2 1384 -694 
20 0.5533158704383614 0.8897940086117562 0 1 0.8945429774496412 0 0 2 694 -990 
21 0.5533158704383614 0.8897940086117562 0 0.5572337348879528 1 0 0 2 694 -1384 
22 0 0.9999999999999997 0 0.5572337348879528 1 0 0 2 1384 -1581 
23 0 0.9269788835533972 0 6.31316283359652e-07 1 0 0 2 1581 -793 
24 6.313162833615493e-07 0.8897940086117562 0 0.5533158704383614 0.9269788835533972 0 0 2 793 -694 
1 -1.852175157773805e-06 0 0 0.2513847053050995 0.1151806673222019 0 0 4 1 2 3 4 
2 0.2319504303205493 0 0 1 0.07378932088613512 0 0 4 5 6 7 8 
3 -1.85217515774605e-06 0.0737893208861351 0 0.5533158704383614 0.9269788835533972 0 0 4 9 10 11 12 
4 0.2513847053050995 0.01858859162583809 0 1 0.8945429774496412 0 0 4 13 14 15 16 
5 0.5533158704383614 0.8897940086117562 0 1 1 0 0 4 17 18 19 20 
6 0 0.8897940086117562 0 0.5572337348879528 1 0 0 4 21 22 23 24 
$EndEntities
