ISO-10303-21;
HEADER;
FILE_NAME('Open CASCADE Shape Model','2026-04-24T09:30:38',('Author'),(
    'Open CASCADE'),'Open CASCADE STEP processor 7.7','Open CASCADE 7.7'
  ,'Unknown');
FILE_DESCRIPTION(('Open CASCADE Model'),'2;1');
FILE_SCHEMA(('AUTOMOTIVE_DESIGN { 1 0 10303 214 1 1 1 1 }'));
ENDSEC;
DATA;
#1 = APPLICATION_PROTOCOL_DEFINITION('international standard',
  'automotive_design',2000,#2);
#2 = APPLICATION_CONTEXT(
  'core data for automotive mechanical design processes');
#3 = SHAPE_DEFINITION_REPRESENTATION(#4,#10);
#4 = PRODUCT_DEFINITION_SHAPE('','',#5);
#5 = PRODUCT_DEFINITION('design','',#6,#9);
#6 = PRODUCT_DEFINITION_FORMATION('','',#7);
#7 = PRODUCT('Open CASCADE STEP translator 7.7 1',
  'Open CASCADE STEP translator 7.7 1','',(#8));
#8 = PRODUCT_CONTEXT('',#2,'mechanical');
#9 = PRODUCT_DEFINITION_CONTEXT('part definition',#2,'design');
#10 = SHAPE_REPRESENTATION('',(#11,#15,#19,#23),#27);
#11 = AXIS2_PLACEMENT_3D('',#12,#13,#14);
#12 = CARTESIAN_POINT('',(0.,0.,0.));
#13 = DIRECTION('',(0.,0.,1.));
#14 = DIRECTION('',(1.,0.,-0.));
#15 = AXIS2_PLACEMENT_3D('',#16,#17,#18);
#16 = CARTESIAN_POINT('',(0.,0.,0.));
#17 = DIRECTION('',(0.,0.,1.));
#18 = DIRECTION('',(1.,0.,-0.));
#19 = AXIS2_PLACEMENT_3D('',#20,#21,#22);
#20 = CARTESIAN_POINT('',(0.,0.,0.));
#21 = DIRECTION('',(0.,0.,1.));
#22 = DIRECTION('',(1.,0.,-0.));
#23 = AXIS2_PLACEMENT_3D('',#24,#25,#26);
#24 = CARTESIAN_POINT('',(0.,0.,0.));
#25 = DIRECTION('',(0.,0.,1.));
#26 = DIRECTION('',(1.,0.,-0.));
#27 = ( GEOMETRIC_REPRESENTATION_CONTEXT(3) 
GLOBAL_UNCERTAINTY_ASSIGNED_CONTEXT((#31)) GLOBAL_UNIT_ASSIGNED_CONTEXT(
(#28,#29,#30)) REPRESENTATION_CONTEXT('Context #1',
  '3D Context with UNIT and UNCERTAINTY') );
#28 = ( LENGTH_UNIT() NAMED_UNIT(*) SI_UNIT(.MILLI.,.METRE.) );
#29 = ( NAMED_UNIT(*) PLANE_ANGLE_UNIT() SI_UNIT($,.RADIAN.) );
#30 = ( NAMED_UNIT(*) SI_UNIT($,.STERADIAN.) SOLID_ANGLE_UNIT() );
#31 = UNCERTAINTY_MEASURE_WITH_UNIT(LENGTH_MEASURE(1.E-07),#28,
  'distance_accuracy_value','confusion accuracy');
#32 = PRODUCT_RELATED_PRODUCT_CATEGORY('part',$,(#7));
#33 = SHAPE_DEFINITION_REPRESENTATION(#34,#40);
#34 = PRODUCT_DEFINITION_SHAPE('','',#35);
#35 = PRODUCT_DEFINITION('design','',#36,#39);
#36 = PRODUCT_DEFINITION_FORMATION('','',#37);
#37 = PRODUCT('Open CASCADE STEP translator 7.7 1.1',
  'Open CASCADE STEP translator 7.7 1.1','',(#38));
#38 = PRODUCT_CONTEXT('',#2,'mechanical');
#39 = PRODUCT_DEFINITION_CONTEXT('part definition',#2,'design');
#40 = MANIFOLD_SURFACE_SHAPE_REPRESENTATION('',(#11,#41),#545);
#41 = SHELL_BASED_SURFACE_MODEL('',(#42));
#42 = OPEN_SHELL('',(#43));
#43 = ADVANCED_FACE('',(#44,#115),#58,.T.);
#44 = FACE_BOUND('',#45,.T.);
#45 = EDGE_LOOP('',(#46,#69,#85,#101));
#46 = ORIENTED_EDGE('',*,*,#47,.T.);
#47 = EDGE_CURVE('',#48,#50,#52,.T.);
#48 = VERTEX_POINT('',#49);
#49 = CARTESIAN_POINT('',(0.,0.,0.));
#50 = VERTEX_POINT('',#51);
#51 = CARTESIAN_POINT('',(1.,0.,0.));
#52 = SURFACE_CURVE('',#53,(#57),.PCURVE_S1.);
#53 = LINE('',#54,#55);
#54 = CARTESIAN_POINT('',(0.,0.,0.));
#55 = VECTOR('',#56,1.);
#56 = DIRECTION('',(1.,0.,0.));
#57 = PCURVE('',#58,#63);
#58 = PLANE('',#59);
#59 = AXIS2_PLACEMENT_3D('',#60,#61,#62);
#60 = CARTESIAN_POINT('',(0.5,0.5,0.));
#61 = DIRECTION('',(0.,0.,1.));
#62 = DIRECTION('',(1.,0.,-0.));
#63 = DEFINITIONAL_REPRESENTATION('',(#64),#68);
#64 = LINE('',#65,#66);
#65 = CARTESIAN_POINT('',(-0.5,-0.5));
#66 = VECTOR('',#67,1.);
#67 = DIRECTION('',(1.,0.));
#68 = ( GEOMETRIC_REPRESENTATION_CONTEXT(2) 
PARAMETRIC_REPRESENTATION_CONTEXT() REPRESENTATION_CONTEXT('2D SPACE',''
  ) );
#69 = ORIENTED_EDGE('',*,*,#70,.T.);
#70 = EDGE_CURVE('',#50,#71,#73,.T.);
#71 = VERTEX_POINT('',#72);
#72 = CARTESIAN_POINT('',(1.,1.,0.));
#73 = SURFACE_CURVE('',#74,(#78),.PCURVE_S1.);
#74 = LINE('',#75,#76);
#75 = CARTESIAN_POINT('',(1.,0.,0.));
#76 = VECTOR('',#77,1.);
#77 = DIRECTION('',(0.,1.,0.));
#78 = PCURVE('',#58,#79);
#79 = DEFINITIONAL_REPRESENTATION('',(#80),#84);
#80 = LINE('',#81,#82);
#81 = CARTESIAN_POINT('',(0.5,-0.5));
#82 = VECTOR('',#83,1.);
#83 = DIRECTION('',(0.,1.));
#84 = ( GEOMETRIC_REPRESENTATION_CONTEXT(2) 
PARAMETRIC_REPRESENTATION_CONTEXT() REPRESENTATION_CONTEXT('2D SPACE',''
  ) );
#85 = ORIENTED_EDGE('',*,*,#86,.T.);
#86 = EDGE_CURVE('',#71,#87,#89,.T.);
#87 = VERTEX_POINT('',#88);
#88 = CARTESIAN_POINT('',(0.,1.,0.));
#89 = SURFACE_CURVE('',#90,(#94),.PCURVE_S1.);
#90 = LINE('',#91,#92);
#91 = CARTESIAN_POINT('',(1.,1.,0.));
#92 = VECTOR('',#93,1.);
#93 = DIRECTION('',(-1.,0.,0.));
#94 = PCURVE('',#58,#95);
#95 = DEFINITIONAL_REPRESENTATION('',(#96),#100);
#96 = LINE('',#97,#98);
#97 = CARTESIAN_POINT('',(0.5,0.5));
#98 = VECTOR('',#99,1.);
#99 = DIRECTION('',(-1.,0.));
#100 = ( GEOMETRIC_REPRESENTATION_CONTEXT(2) 
PARAMETRIC_REPRESENTATION_CONTEXT() REPRESENTATION_CONTEXT('2D SPACE',''
  ) );
#101 = ORIENTED_EDGE('',*,*,#102,.T.);
#102 = EDGE_CURVE('',#87,#48,#103,.T.);
#103 = SURFACE_CURVE('',#104,(#108),.PCURVE_S1.);
#104 = LINE('',#105,#106);
#105 = CARTESIAN_POINT('',(0.,1.,0.));
#106 = VECTOR('',#107,1.);
#107 = DIRECTION('',(0.,-1.,0.));
#108 = PCURVE('',#58,#109);
#109 = DEFINITIONAL_REPRESENTATION('',(#110),#114);
#110 = LINE('',#111,#112);
#111 = CARTESIAN_POINT('',(-0.5,0.5));
#112 = VECTOR('',#113,1.);
#113 = DIRECTION('',(0.,-1.));
#114 = ( GEOMETRIC_REPRESENTATION_CONTEXT(2) 
PARAMETRIC_REPRESENTATION_CONTEXT() REPRESENTATION_CONTEXT('2D SPACE',''
  ) );
#115 = FACE_BOUND('',#116,.F.);
#116 = EDGE_LOOP('',(#117,#333));
#117 = ORIENTED_EDGE('',*,*,#118,.T.);
#118 = EDGE_CURVE('',#119,#121,#123,.T.);
#119 = VERTEX_POINT('',#120);
#120 = CARTESIAN_POINT('',(0.23089699205,0.727882158442,0.));
#121 = VERTEX_POINT('',#122);
#122 = CARTESIAN_POINT('',(0.770147380897,0.2662716992,0.));
#123 = SURFACE_CURVE('',#124,(#227),.PCURVE_S1.);
#124 = B_SPLINE_CURVE_WITH_KNOTS('',3,(#125,#126,#127,#128,#129,#130,
    #131,#132,#133,#134,#135,#136,#137,#138,#139,#140,#141,#142,#143,
    #144,#145,#146,#147,#148,#149,#150,#151,#152,#153,#154,#155,#156,
    #157,#158,#159,#160,#161,#162,#163,#164,#165,#166,#167,#168,#169,
    #170,#171,#172,#173,#174,#175,#176,#177,#178,#179,#180,#181,#182,
    #183,#184,#185,#186,#187,#188,#189,#190,#191,#192,#193,#194,#195,
    #196,#197,#198,#199,#200,#201,#202,#203,#204,#205,#206,#207,#208,
    #209,#210,#211,#212,#213,#214,#215,#216,#217,#218,#219,#220,#221,
    #222,#223,#224,#225,#226),.UNSPECIFIED.,.F.,.F.,(4,1,1,1,1,1,1,1,1,1
    ,1,1,1,1,1,1,1,1,1,1,1,1,1,1,1,1,1,1,1,1,1,1,1,1,1,1,1,1,1,1,1,1,1,1
    ,1,1,1,1,1,1,1,1,1,1,1,1,1,1,1,1,1,1,1,1,1,1,1,1,1,1,1,1,1,1,1,1,1,1
    ,1,1,1,1,1,1,1,1,1,1,1,1,1,1,1,1,1,1,1,1,1,4),(0.,1.413596591002E-02
    ,2.275559660255E-02,3.07719284862E-02,3.853421956345E-02,
    4.61578396043E-02,5.369504262703E-02,6.117382522627E-02,
    6.861087855864E-02,7.601692372778E-02,8.339923748046E-02,
    9.076297298668E-02,9.811190452623E-02,0.105448872944,0.112776065168,
    0.12009519667,0.127407634619,0.134714483387,0.142016645407,
    0.149314865438,0.15660976336,0.163901858917,0.171191590644,
    0.178479330563,0.185765395734,0.193050057435,0.200333548539,
    0.207616069496,0.214897793233,0.222178869198,0.229459426719,
    0.236739577824,0.244019419616,0.25129903629,0.258578500859,
    0.265857876626,0.273137218465,0.280416573928,0.287695984205,
    0.294975484969,0.302232035822,0.309454396119,0.316677301516,
    0.323900765817,0.331124799182,0.33834940858,0.345574598208,
    0.352800369852,0.360026723234,0.367253656304,0.374481165524,
    0.381709246117,0.388937892291,0.396167097454,0.403396854401,
    0.410627155488,0.417857992794,0.425089358266,0.432321243855,
    0.439553641642,0.446786543949,0.454019943448,0.461253833259,
    0.468488207039,0.475723059066,0.482958384323,0.490194178563,
    0.497430438385,0.504667161295,0.511904345765,0.519141991296,
    0.526380098467,0.533618668987,0.54085770575,0.548097212877,
    0.555337195766,0.562577661135,0.569818617068,0.577060073058,
    0.584302040049,0.591544530482,0.598787558336,0.606031139173,
    0.613275290181,0.62052003022,0.627765379871,0.635011361478,
    0.642257999202,0.649505319069,0.656753349025,0.66400211899,
    0.671251660915,0.678502008839,0.685753198957,0.693005269681,
    0.70025826171,0.707512218101,0.714767184343,0.722023208437,
    0.72973225457),.UNSPECIFIED.);
#125 = CARTESIAN_POINT('',(0.23089699205,0.727882158442,0.));
#126 = CARTESIAN_POINT('',(0.23469315206,0.73172922312,0.));
#127 = CARTESIAN_POINT('',(0.241821565806,0.734307016548,0.));
#128 = CARTESIAN_POINT('',(0.252224454813,0.733575173704,0.));
#129 = CARTESIAN_POINT('',(0.26021415633,0.732158234796,0.));
#130 = CARTESIAN_POINT('',(0.267772584007,0.730176684744,0.));
#131 = CARTESIAN_POINT('',(0.275050556396,0.727847350399,0.));
#132 = CARTESIAN_POINT('',(0.282137240582,0.725246582367,0.));
#133 = CARTESIAN_POINT('',(0.289073571177,0.722432717251,0.));
#134 = CARTESIAN_POINT('',(0.295887438689,0.719441514328,0.));
#135 = CARTESIAN_POINT('',(0.302597167533,0.716299185295,0.));
#136 = CARTESIAN_POINT('',(0.309216116979,0.713024914304,0.));
#137 = CARTESIAN_POINT('',(0.315754261665,0.709633494101,0.));
#138 = CARTESIAN_POINT('',(0.322219344978,0.706136590947,0.));
#139 = CARTESIAN_POINT('',(0.328617522688,0.702543643617,0.));
#140 = CARTESIAN_POINT('',(0.334953798459,0.698862435793,0.));
#141 = CARTESIAN_POINT('',(0.341232312506,0.695099496742,0.));
#142 = CARTESIAN_POINT('',(0.34745654422,0.691260383159,0.));
#143 = CARTESIAN_POINT('',(0.353629456995,0.687349884254,0.));
#144 = CARTESIAN_POINT('',(0.359753604603,0.683372173707,0.));
#145 = CARTESIAN_POINT('',(0.365831210802,0.679330924517,0.));
#146 = CARTESIAN_POINT('',(0.371864230013,0.675229397226,0.));
#147 = CARTESIAN_POINT('',(0.377854394277,0.671070508702,0.));
#148 = CARTESIAN_POINT('',(0.383803250106,0.66685688647,0.));
#149 = CARTESIAN_POINT('',(0.389712187752,0.662590912143,0.));
#150 = CARTESIAN_POINT('',(0.395582464711,0.658274756519,0.));
#151 = CARTESIAN_POINT('',(0.401415224793,0.653910408213,0.));
#152 = CARTESIAN_POINT('',(0.407211513729,0.649499697234,0.));
#153 = CARTESIAN_POINT('',(0.412972292049,0.645044314549,0.));
#154 = CARTESIAN_POINT('',(0.418698445783,0.640545828454,0.));
#155 = CARTESIAN_POINT('',(0.42439079543,0.636005698359,0.));
#156 = CARTESIAN_POINT('',(0.430050103492,0.631425286466,0.));
#157 = CARTESIAN_POINT('',(0.435677080896,0.626805867768,0.));
#158 = CARTESIAN_POINT('',(0.441272392351,0.622148638502,0.));
#159 = CARTESIAN_POINT('',(0.446836661324,0.617454723864,0.));
#160 = CARTESIAN_POINT('',(0.452370472867,0.612725183133,0.));
#161 = CARTESIAN_POINT('',(0.457874381459,0.607961019977,0.));
#162 = CARTESIAN_POINT('',(0.463348897646,0.603163169602,0.));
#163 = CARTESIAN_POINT('',(0.468794551672,0.598332569182,0.));
#164 = CARTESIAN_POINT('',(0.474211667993,0.593469914711,0.));
#165 = CARTESIAN_POINT('',(0.479595523503,0.588581755431,0.));
#166 = CARTESIAN_POINT('',(0.484936243719,0.583674580906,0.));
#167 = CARTESIAN_POINT('',(0.49024156039,0.578756883058,0.));
#168 = CARTESIAN_POINT('',(0.495519241181,0.57382567717,0.));
#169 = CARTESIAN_POINT('',(0.500777809294,0.568873282771,0.));
#170 = CARTESIAN_POINT('',(0.506017771054,0.56390038205,0.));
#171 = CARTESIAN_POINT('',(0.511239481631,0.558907489268,0.));
#172 = CARTESIAN_POINT('',(0.516443312907,0.553895130425,0.));
#173 = CARTESIAN_POINT('',(0.521629609668,0.548863796819,0.));
#174 = CARTESIAN_POINT('',(0.526798702407,0.543813959036,0.));
#175 = CARTESIAN_POINT('',(0.531950904841,0.538746064603,0.));
#176 = CARTESIAN_POINT('',(0.537086515443,0.5336605399,0.));
#177 = CARTESIAN_POINT('',(0.542205817805,0.52855779082,0.));
#178 = CARTESIAN_POINT('',(0.547309081245,0.523438203661,0.));
#179 = CARTESIAN_POINT('',(0.552396561281,0.518302145876,0.));
#180 = CARTESIAN_POINT('',(0.55746850008,0.513149966773,0.));
#181 = CARTESIAN_POINT('',(0.562525126863,0.507981998163,0.));
#182 = CARTESIAN_POINT('',(0.567566658272,0.502798554959,0.));
#183 = CARTESIAN_POINT('',(0.572593298704,0.497599935728,0.));
#184 = CARTESIAN_POINT('',(0.577605240616,0.4923864232,0.));
#185 = CARTESIAN_POINT('',(0.582602664802,0.487158284753,0.));
#186 = CARTESIAN_POINT('',(0.587585740645,0.481915772849,0.));
#187 = CARTESIAN_POINT('',(0.592554626347,0.476659125451,0.));
#188 = CARTESIAN_POINT('',(0.597509469139,0.471388566407,0.));
#189 = CARTESIAN_POINT('',(0.602450405472,0.466104305817,0.));
#190 = CARTESIAN_POINT('',(0.607377561194,0.460806540366,0.));
#191 = CARTESIAN_POINT('',(0.612291051703,0.455495453644,0.));
#192 = CARTESIAN_POINT('',(0.617190982098,0.450171216449,0.));
#193 = CARTESIAN_POINT('',(0.622077447307,0.444833987062,0.));
#194 = CARTESIAN_POINT('',(0.62695053221,0.43948391152,0.));
#195 = CARTESIAN_POINT('',(0.631810311745,0.434121123859,0.));
#196 = CARTESIAN_POINT('',(0.63665685101,0.428745746362,0.));
#197 = CARTESIAN_POINT('',(0.641490205352,0.423357889774,0.));
#198 = CARTESIAN_POINT('',(0.646310420449,0.417957653524,0.));
#199 = CARTESIAN_POINT('',(0.651117532384,0.412545125921,0.));
#200 = CARTESIAN_POINT('',(0.65591156771,0.407120384355,0.));
#201 = CARTESIAN_POINT('',(0.660692543513,0.401683495474,0.));
#202 = CARTESIAN_POINT('',(0.665460467463,0.396234515366,0.));
#203 = CARTESIAN_POINT('',(0.670215337864,0.390773489723,0.));
#204 = CARTESIAN_POINT('',(0.674957143696,0.385300454003,0.));
#205 = CARTESIAN_POINT('',(0.679685864653,0.379815433585,0.));
#206 = CARTESIAN_POINT('',(0.684401471177,0.374318443919,0.));
#207 = CARTESIAN_POINT('',(0.689103924488,0.368809490664,0.));
#208 = CARTESIAN_POINT('',(0.693793176609,0.363288569826,0.));
#209 = CARTESIAN_POINT('',(0.698469170383,0.357755667891,0.));
#210 = CARTESIAN_POINT('',(0.703131839506,0.352210761956,0.));
#211 = CARTESIAN_POINT('',(0.707781108505,0.346653819832,0.));
#212 = CARTESIAN_POINT('',(0.712416892866,0.341084800231,0.));
#213 = CARTESIAN_POINT('',(0.71703909863,0.335503652631,0.));
#214 = CARTESIAN_POINT('',(0.721647623935,0.329910318317,0.));
#215 = CARTESIAN_POINT('',(0.726242353296,0.324304727025,0.));
#216 = CARTESIAN_POINT('',(0.730823178971,0.318686809966,0.));
#217 = CARTESIAN_POINT('',(0.735389921218,0.313056451709,0.));
#218 = CARTESIAN_POINT('',(0.739942625956,0.307413670265,0.));
#219 = CARTESIAN_POINT('',(0.744480453672,0.301757945358,0.));
#220 = CARTESIAN_POINT('',(0.749005826798,0.296090726245,0.));
#221 = CARTESIAN_POINT('',(0.753508948601,0.290406071116,0.));
#222 = CARTESIAN_POINT('',(0.758025590606,0.284725588519,0.));
#223 = CARTESIAN_POINT('',(0.762421383368,0.278968008243,0.));
#224 = CARTESIAN_POINT('',(0.767296168448,0.273321207536,0.));
#225 = CARTESIAN_POINT('',(0.769522624778,0.268877212462,-0.));
#226 = CARTESIAN_POINT('',(0.770147380897,0.2662716992,0.));
#227 = PCURVE('',#58,#228);
#228 = DEFINITIONAL_REPRESENTATION('',(#229),#332);
#229 = B_SPLINE_CURVE_WITH_KNOTS('',3,(#230,#231,#232,#233,#234,#235,
    #236,#237,#238,#239,#240,#241,#242,#243,#244,#245,#246,#247,#248,
    #249,#250,#251,#252,#253,#254,#255,#256,#257,#258,#259,#260,#261,
    #262,#263,#264,#265,#266,#267,#268,#269,#270,#271,#272,#273,#274,
    #275,#276,#277,#278,#279,#280,#281,#282,#283,#284,#285,#286,#287,
    #288,#289,#290,#291,#292,#293,#294,#295,#296,#297,#298,#299,#300,
    #301,#302,#303,#304,#305,#306,#307,#308,#309,#310,#311,#312,#313,
    #314,#315,#316,#317,#318,#319,#320,#321,#322,#323,#324,#325,#326,
    #327,#328,#329,#330,#331),.UNSPECIFIED.,.F.,.F.,(4,1,1,1,1,1,1,1,1,1
    ,1,1,1,1,1,1,1,1,1,1,1,1,1,1,1,1,1,1,1,1,1,1,1,1,1,1,1,1,1,1,1,1,1,1
    ,1,1,1,1,1,1,1,1,1,1,1,1,1,1,1,1,1,1,1,1,1,1,1,1,1,1,1,1,1,1,1,1,1,1
    ,1,1,1,1,1,1,1,1,1,1,1,1,1,1,1,1,1,1,1,1,1,4),(0.,1.413596591002E-02
    ,2.275559660255E-02,3.07719284862E-02,3.853421956345E-02,
    4.61578396043E-02,5.369504262703E-02,6.117382522627E-02,
    6.861087855864E-02,7.601692372778E-02,8.339923748046E-02,
    9.076297298668E-02,9.811190452623E-02,0.105448872944,0.112776065168,
    0.12009519667,0.127407634619,0.134714483387,0.142016645407,
    0.149314865438,0.15660976336,0.163901858917,0.171191590644,
    0.178479330563,0.185765395734,0.193050057435,0.200333548539,
    0.207616069496,0.214897793233,0.222178869198,0.229459426719,
    0.236739577824,0.244019419616,0.25129903629,0.258578500859,
    0.265857876626,0.273137218465,0.280416573928,0.287695984205,
    0.294975484969,0.302232035822,0.309454396119,0.316677301516,
    0.323900765817,0.331124799182,0.33834940858,0.345574598208,
    0.352800369852,0.360026723234,0.367253656304,0.374481165524,
    0.381709246117,0.388937892291,0.396167097454,0.403396854401,
    0.410627155488,0.417857992794,0.425089358266,0.432321243855,
    0.439553641642,0.446786543949,0.454019943448,0.461253833259,
    0.468488207039,0.475723059066,0.482958384323,0.490194178563,
    0.497430438385,0.504667161295,0.511904345765,0.519141991296,
    0.526380098467,0.533618668987,0.54085770575,0.548097212877,
    0.555337195766,0.562577661135,0.569818617068,0.577060073058,
    0.584302040049,0.591544530482,0.598787558336,0.606031139173,
    0.613275290181,0.62052003022,0.627765379871,0.635011361478,
    0.642257999202,0.649505319069,0.656753349025,0.66400211899,
    0.671251660915,0.678502008839,0.685753198957,0.693005269681,
    0.70025826171,0.707512218101,0.714767184343,0.722023208437,
    0.72973225457),.UNSPECIFIED.);
#230 = CARTESIAN_POINT('',(-0.26910300795,0.227882158442));
#231 = CARTESIAN_POINT('',(-0.26530684794,0.23172922312));
#232 = CARTESIAN_POINT('',(-0.258178434194,0.234307016548));
#233 = CARTESIAN_POINT('',(-0.247775545187,0.233575173704));
#234 = CARTESIAN_POINT('',(-0.23978584367,0.232158234796));
#235 = CARTESIAN_POINT('',(-0.232227415993,0.230176684744));
#236 = CARTESIAN_POINT('',(-0.224949443604,0.227847350399));
#237 = CARTESIAN_POINT('',(-0.217862759418,0.225246582367));
#238 = CARTESIAN_POINT('',(-0.210926428823,0.222432717251));
#239 = CARTESIAN_POINT('',(-0.204112561311,0.219441514328));
#240 = CARTESIAN_POINT('',(-0.197402832467,0.216299185295));
#241 = CARTESIAN_POINT('',(-0.190783883021,0.213024914304));
#242 = CARTESIAN_POINT('',(-0.184245738335,0.209633494101));
#243 = CARTESIAN_POINT('',(-0.177780655022,0.206136590947));
#244 = CARTESIAN_POINT('',(-0.171382477312,0.202543643617));
#245 = CARTESIAN_POINT('',(-0.165046201541,0.198862435793));
#246 = CARTESIAN_POINT('',(-0.158767687494,0.195099496742));
#247 = CARTESIAN_POINT('',(-0.15254345578,0.191260383159));
#248 = CARTESIAN_POINT('',(-0.146370543005,0.187349884254));
#249 = CARTESIAN_POINT('',(-0.140246395397,0.183372173707));
#250 = CARTESIAN_POINT('',(-0.134168789198,0.179330924517));
#251 = CARTESIAN_POINT('',(-0.128135769987,0.175229397226));
#252 = CARTESIAN_POINT('',(-0.122145605723,0.171070508702));
#253 = CARTESIAN_POINT('',(-0.116196749894,0.16685688647));
#254 = CARTESIAN_POINT('',(-0.110287812248,0.162590912143));
#255 = CARTESIAN_POINT('',(-0.104417535289,0.158274756519));
#256 = CARTESIAN_POINT('',(-9.858477520721E-02,0.153910408213));
#257 = CARTESIAN_POINT('',(-9.278848627064E-02,0.149499697234));
#258 = CARTESIAN_POINT('',(-8.702770795099E-02,0.145044314549));
#259 = CARTESIAN_POINT('',(-8.130155421658E-02,0.140545828454));
#260 = CARTESIAN_POINT('',(-7.560920457033E-02,0.136005698359));
#261 = CARTESIAN_POINT('',(-6.994989650841E-02,0.131425286466));
#262 = CARTESIAN_POINT('',(-6.432291910433E-02,0.126805867768));
#263 = CARTESIAN_POINT('',(-5.872760764874E-02,0.122148638502));
#264 = CARTESIAN_POINT('',(-5.31633386758E-02,0.117454723864));
#265 = CARTESIAN_POINT('',(-4.762952713255E-02,0.112725183133));
#266 = CARTESIAN_POINT('',(-4.212561854069E-02,0.107961019977));
#267 = CARTESIAN_POINT('',(-3.665110235432E-02,0.103163169602));
#268 = CARTESIAN_POINT('',(-3.120544832803E-02,9.833256918184E-02));
#269 = CARTESIAN_POINT('',(-2.578833200723E-02,9.346991471109E-02));
#270 = CARTESIAN_POINT('',(-2.040447649713E-02,8.858175543101E-02));
#271 = CARTESIAN_POINT('',(-1.506375628081E-02,8.3674580906E-02));
#272 = CARTESIAN_POINT('',(-9.758439609582E-03,7.87568830583E-02));
#273 = CARTESIAN_POINT('',(-4.480758818951E-03,7.382567717028E-02));
#274 = CARTESIAN_POINT('',(7.778092937734E-04,6.88732827707E-02));
#275 = CARTESIAN_POINT('',(6.01777105368E-03,6.39003820501E-02));
#276 = CARTESIAN_POINT('',(1.123948163085E-02,5.890748926757E-02));
#277 = CARTESIAN_POINT('',(1.64433129068E-02,5.389513042482E-02));
#278 = CARTESIAN_POINT('',(2.162960966839E-02,4.886379681934E-02));
#279 = CARTESIAN_POINT('',(2.679870240661E-02,4.3813959036E-02));
#280 = CARTESIAN_POINT('',(3.195090484084E-02,3.874606460274E-02));
#281 = CARTESIAN_POINT('',(3.708651544267E-02,3.366053989994E-02));
#282 = CARTESIAN_POINT('',(4.220581780475E-02,2.855779081965E-02));
#283 = CARTESIAN_POINT('',(4.730908124487E-02,2.343820366133E-02));
#284 = CARTESIAN_POINT('',(5.239656128068E-02,1.83021458761E-02));
#285 = CARTESIAN_POINT('',(5.746850007973E-02,1.314996677275E-02));
#286 = CARTESIAN_POINT('',(6.252512686276E-02,7.981998162996E-03));
#287 = CARTESIAN_POINT('',(6.756665827167E-02,2.798554959249E-03));
#288 = CARTESIAN_POINT('',(7.259329870377E-02,-2.400064272475E-03));
#289 = CARTESIAN_POINT('',(7.760524061599E-02,-7.613576799617E-03));
#290 = CARTESIAN_POINT('',(8.260266480207E-02,-1.284171524651E-02));
#291 = CARTESIAN_POINT('',(8.75857406449E-02,-1.808422715074E-02));
#292 = CARTESIAN_POINT('',(9.25546263467E-02,-2.334087454948E-02));
#293 = CARTESIAN_POINT('',(9.750946913868E-02,-2.861143359302E-02));
#294 = CARTESIAN_POINT('',(0.102450405472,-3.389569418321E-02));
#295 = CARTESIAN_POINT('',(0.107377561194,-3.919345963449E-02));
#296 = CARTESIAN_POINT('',(0.112291051703,-4.450454635572E-02));
#297 = CARTESIAN_POINT('',(0.117190982098,-4.982878355094E-02));
#298 = CARTESIAN_POINT('',(0.122077447307,-5.516601293754E-02));
#299 = CARTESIAN_POINT('',(0.12695053221,-6.051608848039E-02));
#300 = CARTESIAN_POINT('',(0.131810311745,-6.587887614065E-02));
#301 = CARTESIAN_POINT('',(0.13665685101,-7.125425363806E-02));
#302 = CARTESIAN_POINT('',(0.141490205352,-7.664211022572E-02));
#303 = CARTESIAN_POINT('',(0.146310420449,-8.204234647625E-02));
#304 = CARTESIAN_POINT('',(0.151117532384,-8.745487407867E-02));
#305 = CARTESIAN_POINT('',(0.15591156771,-9.287961564491E-02));
#306 = CARTESIAN_POINT('',(0.160692543513,-9.831650452555E-02));
#307 = CARTESIAN_POINT('',(0.165460467463,-0.103765484634));
#308 = CARTESIAN_POINT('',(0.170215337864,-0.109226510277));
#309 = CARTESIAN_POINT('',(0.174957143696,-0.114699545997));
#310 = CARTESIAN_POINT('',(0.179685864653,-0.120184566415));
#311 = CARTESIAN_POINT('',(0.184401471177,-0.125681556081));
#312 = CARTESIAN_POINT('',(0.189103924488,-0.131190509336));
#313 = CARTESIAN_POINT('',(0.193793176609,-0.136711430174));
#314 = CARTESIAN_POINT('',(0.198469170383,-0.142244332109));
#315 = CARTESIAN_POINT('',(0.203131839506,-0.147789238044));
#316 = CARTESIAN_POINT('',(0.207781108505,-0.153346180168));
#317 = CARTESIAN_POINT('',(0.212416892866,-0.158915199769));
#318 = CARTESIAN_POINT('',(0.21703909863,-0.164496347369));
#319 = CARTESIAN_POINT('',(0.221647623935,-0.170089681683));
#320 = CARTESIAN_POINT('',(0.226242353296,-0.175695272975));
#321 = CARTESIAN_POINT('',(0.230823178971,-0.181313190034));
#322 = CARTESIAN_POINT('',(0.235389921218,-0.186943548291));
#323 = CARTESIAN_POINT('',(0.239942625956,-0.192586329735));
#324 = CARTESIAN_POINT('',(0.244480453672,-0.198242054642));
#325 = CARTESIAN_POINT('',(0.249005826798,-0.203909273755));
#326 = CARTESIAN_POINT('',(0.253508948601,-0.209593928884));
#327 = CARTESIAN_POINT('',(0.258025590606,-0.215274411481));
#328 = CARTESIAN_POINT('',(0.262421383368,-0.221031991757));
#329 = CARTESIAN_POINT('',(0.267296168448,-0.226678792464));
#330 = CARTESIAN_POINT('',(0.269522624778,-0.231122787538));
#331 = CARTESIAN_POINT('',(0.270147380897,-0.2337283008));
#332 = ( GEOMETRIC_REPRESENTATION_CONTEXT(2) 
PARAMETRIC_REPRESENTATION_CONTEXT() REPRESENTATION_CONTEXT('2D SPACE',''
  ) );
#333 = ORIENTED_EDGE('',*,*,#334,.F.);
#334 = EDGE_CURVE('',#119,#121,#335,.T.);
#335 = SURFACE_CURVE('',#336,(#439),.PCURVE_S1.);
#336 = B_SPLINE_CURVE_WITH_KNOTS('',3,(#337,#338,#339,#340,#341,#342,
    #343,#344,#345,#346,#347,#348,#349,#350,#351,#352,#353,#354,#355,
    #356,#357,#358,#359,#360,#361,#362,#363,#364,#365,#366,#367,#368,
    #369,#370,#371,#372,#373,#374,#375,#376,#377,#378,#379,#380,#381,
    #382,#383,#384,#385,#386,#387,#388,#389,#390,#391,#392,#393,#394,
    #395,#396,#397,#398,#399,#400,#401,#402,#403,#404,#405,#406,#407,
    #408,#409,#410,#411,#412,#413,#414,#415,#416,#417,#418,#419,#420,
    #421,#422,#423,#424,#425,#426,#427,#428,#429,#430,#431,#432,#433,
    #434,#435,#436,#437,#438),.UNSPECIFIED.,.F.,.F.,(4,1,1,1,1,1,1,1,1,1
    ,1,1,1,1,1,1,1,1,1,1,1,1,1,1,1,1,1,1,1,1,1,1,1,1,1,1,1,1,1,1,1,1,1,1
    ,1,1,1,1,1,1,1,1,1,1,1,1,1,1,1,1,1,1,1,1,1,1,1,1,1,1,1,1,1,1,1,1,1,1
    ,1,1,1,1,1,1,1,1,1,1,1,1,1,1,1,1,1,1,1,1,1,4),(0.,1.412046360642E-02
    ,2.267927233532E-02,3.061176264864E-02,3.827287406216E-02,
    4.578120983492E-02,5.319119744519E-02,6.053243460242E-02,
    6.782286364876E-02,7.50742245419E-02,8.229464918957E-02,
    8.949002527001E-02,9.666476942537E-02,0.103822292433,0.110965292847,
    0.118095949878,0.125216054422,0.132327100648,0.139430351644,
    0.146526887499,0.153617641207,0.160703425953,0.167784956156,
    0.174862863947,0.181937712222,0.189010005114,0.19608019648,
    0.203148696852,0.210215879179,0.217282083614,0.224347621538,
    0.231412778964,0.238477819438,0.245542986536,0.252608506013,
    0.25967458767,0.266741426993,0.273809206578,0.280878097407,
    0.287948259958,0.295042915192,0.302173443939,0.30930519571,
    0.316438231091,0.323572605338,0.330708368917,0.337845567996,
    0.344984244896,0.352124438491,0.359266184587,0.366409516263,
    0.373554464176,0.38070105686,0.387849320984,0.394999281599,
    0.402150962369,0.409304385776,0.41645957332,0.4236165457,
    0.430775322985,0.437935924772,0.445098370336,0.452262678768,
    0.459428869112,0.466596960481,0.473766972182,0.48093892382,
    0.488112835409,0.495288727472,0.502466621133,0.509646538212,
    0.516828501313,0.524012533906,0.531198660416,0.538386906296,
    0.545577298108,0.552769863598,0.559964631773,0.56716163297,
    0.574360898934,0.581562462887,0.5887663596,0.595972625467,
    0.603181298573,0.610392418772,0.617606027755,0.62482216913,
    0.63204088849,0.639262233498,0.646486253956,0.653713001894,
    0.660942531646,0.668174899936,0.675410165965,0.682648391496,
    0.689889640952,0.697133981505,0.704381483174,0.711632218927,
    0.718886264785),.UNSPECIFIED.);
#337 = CARTESIAN_POINT('',(0.23089699205,0.727882158442,0.));
#338 = CARTESIAN_POINT('',(0.228619107566,0.723001663612,0.));
#339 = CARTESIAN_POINT('',(0.228659014271,0.715450188754,0.));
#340 = CARTESIAN_POINT('',(0.23283484747,0.705960917112,0.));
#341 = CARTESIAN_POINT('',(0.236788640232,0.698969010596,0.));
#342 = CARTESIAN_POINT('',(0.24108289595,0.692562577505,0.));
#343 = CARTESIAN_POINT('',(0.245571531323,0.686520881048,0.));
#344 = CARTESIAN_POINT('',(0.250215781351,0.680731893162,0.));
#345 = CARTESIAN_POINT('',(0.254977190047,0.675135434612,0.));
#346 = CARTESIAN_POINT('',(0.259833400793,0.669691793229,0.));
#347 = CARTESIAN_POINT('',(0.264767494831,0.664373735987,0.));
#348 = CARTESIAN_POINT('',(0.26976722302,0.659161276612,0.));
#349 = CARTESIAN_POINT('',(0.274823145523,0.654039232599,0.));
#350 = CARTESIAN_POINT('',(0.27992787068,0.648995680954,0.));
#351 = CARTESIAN_POINT('',(0.285075458066,0.644021024892,0.));
#352 = CARTESIAN_POINT('',(0.290261047968,0.639107374744,0.));
#353 = CARTESIAN_POINT('',(0.29548059753,0.634248129258,0.));
#354 = CARTESIAN_POINT('',(0.300730695616,0.629437681079,0.));
#355 = CARTESIAN_POINT('',(0.306008427689,0.624671204587,0.));
#356 = CARTESIAN_POINT('',(0.311311275744,0.619944499348,0.));
#357 = CARTESIAN_POINT('',(0.316637042689,0.615253872335,0.));
#358 = CARTESIAN_POINT('',(0.321983794324,0.610596047763,0.));
#359 = CARTESIAN_POINT('',(0.32734981417,0.605968096984,0.));
#360 = CARTESIAN_POINT('',(0.332733567861,0.601367383246,0.));
#361 = CARTESIAN_POINT('',(0.338133674745,0.596791517615,0.));
#362 = CARTESIAN_POINT('',(0.343548884996,0.592238323421,0.));
#363 = CARTESIAN_POINT('',(0.348978060996,0.587705807286,0.));
#364 = CARTESIAN_POINT('',(0.354420162068,0.583192135307,0.));
#365 = CARTESIAN_POINT('',(0.35987423184,0.578695613293,0.));
#366 = CARTESIAN_POINT('',(0.365339387732,0.574214670266,0.));
#367 = CARTESIAN_POINT('',(0.370814812132,0.569747844567,0.));
#368 = CARTESIAN_POINT('',(0.376299744962,0.565293772079,0.));
#369 = CARTESIAN_POINT('',(0.381793477382,0.560851176219,0.));
#370 = CARTESIAN_POINT('',(0.387295346343,0.556418859243,0.));
#371 = CARTESIAN_POINT('',(0.392804730266,0.551995695193,0.));
#372 = CARTESIAN_POINT('',(0.398321044006,0.547580622117,0.));
#373 = CARTESIAN_POINT('',(0.403843739427,0.543172641537,0.));
#374 = CARTESIAN_POINT('',(0.409372287531,0.538770794698,0.));
#375 = CARTESIAN_POINT('',(0.414906231498,0.534374228667,0.));
#376 = CARTESIAN_POINT('',(0.420444976813,0.529981929784,0.));
#377 = CARTESIAN_POINT('',(0.425994593873,0.525588928316,0.));
#378 = CARTESIAN_POINT('',(0.431561838909,0.521185091797,0.));
#379 = CARTESIAN_POINT('',(0.437152656594,0.516777975147,0.));
#380 = CARTESIAN_POINT('',(0.442761838625,0.512373511175,0.));
#381 = CARTESIAN_POINT('',(0.448379521866,0.507977815807,0.));
#382 = CARTESIAN_POINT('',(0.454005398525,0.503590437301,0.));
#383 = CARTESIAN_POINT('',(0.459639060674,0.499210799258,0.));
#384 = CARTESIAN_POINT('',(0.465280150975,0.494838391986,0.));
#385 = CARTESIAN_POINT('',(0.470928321112,0.490472719505,0.));
#386 = CARTESIAN_POINT('',(0.476583241872,0.486113312201,0.));
#387 = CARTESIAN_POINT('',(0.482244599498,0.481759722026,0.));
#388 = CARTESIAN_POINT('',(0.487912095805,0.477411522501,0.));
#389 = CARTESIAN_POINT('',(0.493585447378,0.473068307543,0.));
#390 = CARTESIAN_POINT('',(0.499264385083,0.468729690703,0.));
#391 = CARTESIAN_POINT('',(0.504948653566,0.464395304387,0.));
#392 = CARTESIAN_POINT('',(0.510638010812,0.460064799154,0.));
#393 = CARTESIAN_POINT('',(0.516332227739,0.45573784307,0.));
#394 = CARTESIAN_POINT('',(0.522031087835,0.451414121111,0.));
#395 = CARTESIAN_POINT('',(0.527734386821,0.447093334606,0.));
#396 = CARTESIAN_POINT('',(0.533441932351,0.442775200725,0.));
#397 = CARTESIAN_POINT('',(0.539153543732,0.438459452002,0.));
#398 = CARTESIAN_POINT('',(0.544869051678,0.43414583589,0.));
#399 = CARTESIAN_POINT('',(0.550588298075,0.429834114348,0.));
#400 = CARTESIAN_POINT('',(0.556311135772,0.425524063451,0.));
#401 = CARTESIAN_POINT('',(0.562037428397,0.421215473033,0.));
#402 = CARTESIAN_POINT('',(0.567767050175,0.416908146343,0.));
#403 = CARTESIAN_POINT('',(0.573499885773,0.412601899727,0.));
#404 = CARTESIAN_POINT('',(0.579235830158,0.408296562331,0.));
#405 = CARTESIAN_POINT('',(0.58497478846,0.403991975818,0.));
#406 = CARTESIAN_POINT('',(0.590716675857,0.3996879941,0.));
#407 = CARTESIAN_POINT('',(0.596461417465,0.395384483088,0.));
#408 = CARTESIAN_POINT('',(0.602208948237,0.391081320452,0.));
#409 = CARTESIAN_POINT('',(0.607959212875,0.386778395401,0.));
#410 = CARTESIAN_POINT('',(0.613712165748,0.382475608461,0.));
#411 = CARTESIAN_POINT('',(0.61946777082,0.378172871279,0.));
#412 = CARTESIAN_POINT('',(0.625226001579,0.373870106423,0.));
#413 = CARTESIAN_POINT('',(0.630986840985,0.369567247204,0.));
#414 = CARTESIAN_POINT('',(0.636750281408,0.365264237493,0.));
#415 = CARTESIAN_POINT('',(0.642516324586,0.360961031558,0.));
#416 = CARTESIAN_POINT('',(0.648284981578,0.3566575939,0.));
#417 = CARTESIAN_POINT('',(0.654056272731,0.352353899101,0.));
#418 = CARTESIAN_POINT('',(0.659830227642,0.348049931672,0.));
#419 = CARTESIAN_POINT('',(0.665606885132,0.343745685915,0.));
#420 = CARTESIAN_POINT('',(0.671386293218,0.339441165781,0.));
#421 = CARTESIAN_POINT('',(0.677168509094,0.335136384744,0.));
#422 = CARTESIAN_POINT('',(0.682953599113,0.330831365669,0.));
#423 = CARTESIAN_POINT('',(0.688741638769,0.326526140692,0.));
#424 = CARTESIAN_POINT('',(0.694532712687,0.322220751098,0.));
#425 = CARTESIAN_POINT('',(0.700326914612,0.31791524721,0.));
#426 = CARTESIAN_POINT('',(0.706124347407,0.313609688276,0.));
#427 = CARTESIAN_POINT('',(0.711925123039,0.309304142359,0.));
#428 = CARTESIAN_POINT('',(0.717729362587,0.304998686237,0.));
#429 = CARTESIAN_POINT('',(0.723537196236,0.300693405295,0.));
#430 = CARTESIAN_POINT('',(0.729348763278,0.29638839343,0.));
#431 = CARTESIAN_POINT('',(0.735164212121,0.292083752956,0.));
#432 = CARTESIAN_POINT('',(0.740983700283,0.287779594501,0.));
#433 = CARTESIAN_POINT('',(0.746807394423,0.283476036939,0.));
#434 = CARTESIAN_POINT('',(0.752635470286,0.279173207221,0.));
#435 = CARTESIAN_POINT('',(0.758468112922,0.274871240586,0.));
#436 = CARTESIAN_POINT('',(0.764305515921,0.270570279341,0.));
#437 = CARTESIAN_POINT('',(0.768199525384,0.267704408917,-0.));
#438 = CARTESIAN_POINT('',(0.770147380897,0.2662716992,0.));
#439 = PCURVE('',#58,#440);
#440 = DEFINITIONAL_REPRESENTATION('',(#441),#544);
#441 = B_SPLINE_CURVE_WITH_KNOTS('',3,(#442,#443,#444,#445,#446,#447,
    #448,#449,#450,#451,#452,#453,#454,#455,#456,#457,#458,#459,#460,
    #461,#462,#463,#464,#465,#466,#467,#468,#469,#470,#471,#472,#473,
    #474,#475,#476,#477,#478,#479,#480,#481,#482,#483,#484,#485,#486,
    #487,#488,#489,#490,#491,#492,#493,#494,#495,#496,#497,#498,#499,
    #500,#501,#502,#503,#504,#505,#506,#507,#508,#509,#510,#511,#512,
    #513,#514,#515,#516,#517,#518,#519,#520,#521,#522,#523,#524,#525,
    #526,#527,#528,#529,#530,#531,#532,#533,#534,#535,#536,#537,#538,
    #539,#540,#541,#542,#543),.UNSPECIFIED.,.F.,.F.,(4,1,1,1,1,1,1,1,1,1
    ,1,1,1,1,1,1,1,1,1,1,1,1,1,1,1,1,1,1,1,1,1,1,1,1,1,1,1,1,1,1,1,1,1,1
    ,1,1,1,1,1,1,1,1,1,1,1,1,1,1,1,1,1,1,1,1,1,1,1,1,1,1,1,1,1,1,1,1,1,1
    ,1,1,1,1,1,1,1,1,1,1,1,1,1,1,1,1,1,1,1,1,1,4),(0.,1.412046360642E-02
    ,2.267927233532E-02,3.061176264864E-02,3.827287406216E-02,
    4.578120983492E-02,5.319119744519E-02,6.053243460242E-02,
    6.782286364876E-02,7.50742245419E-02,8.229464918957E-02,
    8.949002527001E-02,9.666476942537E-02,0.103822292433,0.110965292847,
    0.118095949878,0.125216054422,0.132327100648,0.139430351644,
    0.146526887499,0.153617641207,0.160703425953,0.167784956156,
    0.174862863947,0.181937712222,0.189010005114,0.19608019648,
    0.203148696852,0.210215879179,0.217282083614,0.224347621538,
    0.231412778964,0.238477819438,0.245542986536,0.252608506013,
    0.25967458767,0.266741426993,0.273809206578,0.280878097407,
    0.287948259958,0.295042915192,0.302173443939,0.30930519571,
    0.316438231091,0.323572605338,0.330708368917,0.337845567996,
    0.344984244896,0.352124438491,0.359266184587,0.366409516263,
    0.373554464176,0.38070105686,0.387849320984,0.394999281599,
    0.402150962369,0.409304385776,0.41645957332,0.4236165457,
    0.430775322985,0.437935924772,0.445098370336,0.452262678768,
    0.459428869112,0.466596960481,0.473766972182,0.48093892382,
    0.488112835409,0.495288727472,0.502466621133,0.509646538212,
    0.516828501313,0.524012533906,0.531198660416,0.538386906296,
    0.545577298108,0.552769863598,0.559964631773,0.56716163297,
    0.574360898934,0.581562462887,0.5887663596,0.595972625467,
    0.603181298573,0.610392418772,0.617606027755,0.62482216913,
    0.63204088849,0.639262233498,0.646486253956,0.653713001894,
    0.660942531646,0.668174899936,0.675410165965,0.682648391496,
    0.689889640952,0.697133981505,0.704381483174,0.711632218927,
    0.718886264785),.UNSPECIFIED.);
#442 = CARTESIAN_POINT('',(-0.26910300795,0.227882158442));
#443 = CARTESIAN_POINT('',(-0.271380892434,0.223001663612));
#444 = CARTESIAN_POINT('',(-0.271340985729,0.215450188754));
#445 = CARTESIAN_POINT('',(-0.26716515253,0.205960917112));
#446 = CARTESIAN_POINT('',(-0.263211359768,0.198969010596));
#447 = CARTESIAN_POINT('',(-0.25891710405,0.192562577505));
#448 = CARTESIAN_POINT('',(-0.254428468677,0.186520881048));
#449 = CARTESIAN_POINT('',(-0.249784218649,0.180731893162));
#450 = CARTESIAN_POINT('',(-0.245022809953,0.175135434612));
#451 = CARTESIAN_POINT('',(-0.240166599207,0.169691793229));
#452 = CARTESIAN_POINT('',(-0.235232505169,0.164373735987));
#453 = CARTESIAN_POINT('',(-0.23023277698,0.159161276612));
#454 = CARTESIAN_POINT('',(-0.225176854477,0.154039232599));
#455 = CARTESIAN_POINT('',(-0.22007212932,0.148995680954));
#456 = CARTESIAN_POINT('',(-0.214924541934,0.144021024892));
#457 = CARTESIAN_POINT('',(-0.209738952032,0.139107374744));
#458 = CARTESIAN_POINT('',(-0.20451940247,0.134248129258));
#459 = CARTESIAN_POINT('',(-0.199269304384,0.129437681079));
#460 = CARTESIAN_POINT('',(-0.193991572311,0.124671204587));
#461 = CARTESIAN_POINT('',(-0.188688724256,0.119944499348));
#462 = CARTESIAN_POINT('',(-0.183362957311,0.115253872335));
#463 = CARTESIAN_POINT('',(-0.178016205676,0.110596047763));
#464 = CARTESIAN_POINT('',(-0.17265018583,0.105968096984));
#465 = CARTESIAN_POINT('',(-0.167266432139,0.101367383246));
#466 = CARTESIAN_POINT('',(-0.161866325255,9.679151761499E-02));
#467 = CARTESIAN_POINT('',(-0.156451115004,9.22383234207E-02));
#468 = CARTESIAN_POINT('',(-0.151021939004,8.770580728644E-02));
#469 = CARTESIAN_POINT('',(-0.145579837932,8.319213530652E-02));
#470 = CARTESIAN_POINT('',(-0.14012576816,7.869561329258E-02));
#471 = CARTESIAN_POINT('',(-0.134660612268,7.421467026598E-02));
#472 = CARTESIAN_POINT('',(-0.129185187868,6.974784456711E-02));
#473 = CARTESIAN_POINT('',(-0.123700255038,6.529377207866E-02));
#474 = CARTESIAN_POINT('',(-0.118206522618,6.085117621892E-02));
#475 = CARTESIAN_POINT('',(-0.112704653657,5.641885924321E-02));
#476 = CARTESIAN_POINT('',(-0.107195269734,5.199569519253E-02));
#477 = CARTESIAN_POINT('',(-0.101678955994,4.758062211696E-02));
#478 = CARTESIAN_POINT('',(-9.615626057347E-02,4.317264153737E-02));
#479 = CARTESIAN_POINT('',(-9.062771246936E-02,3.877079469776E-02));
#480 = CARTESIAN_POINT('',(-8.509376850219E-02,3.437422866732E-02));
#481 = CARTESIAN_POINT('',(-7.955502318708E-02,2.998192978385E-02));
#482 = CARTESIAN_POINT('',(-7.400540612662E-02,2.558892831567E-02));
#483 = CARTESIAN_POINT('',(-6.843816109065E-02,2.118509179666E-02));
#484 = CARTESIAN_POINT('',(-6.284734340613E-02,1.677797514699E-02));
#485 = CARTESIAN_POINT('',(-5.723816137478E-02,1.237351117548E-02));
#486 = CARTESIAN_POINT('',(-5.162047813425E-02,7.97781580732E-03));
#487 = CARTESIAN_POINT('',(-4.599460147486E-02,3.590437301051E-03));
#488 = CARTESIAN_POINT('',(-4.036093932606E-02,-7.892007422116E-04));
#489 = CARTESIAN_POINT('',(-3.471984902458E-02,-5.161608013908E-03));
#490 = CARTESIAN_POINT('',(-2.907167888811E-02,-9.527280494881E-03));
#491 = CARTESIAN_POINT('',(-2.341675812769E-02,-1.388668779914E-02));
#492 = CARTESIAN_POINT('',(-1.77554005019E-02,-1.82402779744E-02));
#493 = CARTESIAN_POINT('',(-1.20879041946E-02,-2.258847749929E-02));
#494 = CARTESIAN_POINT('',(-6.414552622064E-03,-2.693169245732E-02));
#495 = CARTESIAN_POINT('',(-7.356149171742E-04,-3.127030929676E-02));
#496 = CARTESIAN_POINT('',(4.94865356591E-03,-3.560469561309E-02));
#497 = CARTESIAN_POINT('',(1.063801081168E-02,-3.993520084631E-02));
#498 = CARTESIAN_POINT('',(1.633222773895E-02,-4.426215692997E-02));
#499 = CARTESIAN_POINT('',(2.203108783473E-02,-4.858587888913E-02));
#500 = CARTESIAN_POINT('',(2.773438682084E-02,-5.290666539438E-02));
#501 = CARTESIAN_POINT('',(3.344193235055E-02,-5.722479927543E-02));
#502 = CARTESIAN_POINT('',(3.915354373238E-02,-6.154054799843E-02));
#503 = CARTESIAN_POINT('',(4.486905167837E-02,-6.58541641102E-02));
#504 = CARTESIAN_POINT('',(5.05882980747E-02,-7.016588565246E-02));
#505 = CARTESIAN_POINT('',(5.631113577249E-02,-7.447593654884E-02));
#506 = CARTESIAN_POINT('',(6.203742839721E-02,-7.878452696688E-02));
#507 = CARTESIAN_POINT('',(6.776705017478E-02,-8.309185365745E-02));
#508 = CARTESIAN_POINT('',(7.349988577307E-02,-8.73981002733E-02));
#509 = CARTESIAN_POINT('',(7.923583015755E-02,-9.170343766869E-02));
#510 = CARTESIAN_POINT('',(8.497478845969E-02,-9.600802418156E-02));
#511 = CARTESIAN_POINT('',(9.071667585721E-02,-0.1003120059));
#512 = CARTESIAN_POINT('',(9.64614174652E-02,-0.104615516912));
#513 = CARTESIAN_POINT('',(0.102208948237,-0.108918679548));
#514 = CARTESIAN_POINT('',(0.107959212875,-0.113221604599));
#515 = CARTESIAN_POINT('',(0.113712165748,-0.117524391539));
#516 = CARTESIAN_POINT('',(0.11946777082,-0.121827128721));
#517 = CARTESIAN_POINT('',(0.125226001579,-0.126129893577));
#518 = CARTESIAN_POINT('',(0.130986840985,-0.130432752796));
#519 = CARTESIAN_POINT('',(0.136750281408,-0.134735762507));
#520 = CARTESIAN_POINT('',(0.142516324586,-0.139038968442));
#521 = CARTESIAN_POINT('',(0.148284981578,-0.1433424061));
#522 = CARTESIAN_POINT('',(0.154056272731,-0.147646100899));
#523 = CARTESIAN_POINT('',(0.159830227642,-0.151950068328));
#524 = CARTESIAN_POINT('',(0.165606885132,-0.156254314085));
#525 = CARTESIAN_POINT('',(0.171386293218,-0.160558834219));
#526 = CARTESIAN_POINT('',(0.177168509094,-0.164863615256));
#527 = CARTESIAN_POINT('',(0.182953599113,-0.169168634331));
#528 = CARTESIAN_POINT('',(0.188741638769,-0.173473859308));
#529 = CARTESIAN_POINT('',(0.194532712687,-0.177779248902));
#530 = CARTESIAN_POINT('',(0.200326914612,-0.18208475279));
#531 = CARTESIAN_POINT('',(0.206124347407,-0.186390311724));
#532 = CARTESIAN_POINT('',(0.211925123039,-0.190695857641));
#533 = CARTESIAN_POINT('',(0.217729362587,-0.195001313763));
#534 = CARTESIAN_POINT('',(0.223537196236,-0.199306594705));
#535 = CARTESIAN_POINT('',(0.229348763278,-0.20361160657));
#536 = CARTESIAN_POINT('',(0.235164212121,-0.207916247044));
#537 = CARTESIAN_POINT('',(0.240983700283,-0.212220405499));
#538 = CARTESIAN_POINT('',(0.246807394423,-0.216523963061));
#539 = CARTESIAN_POINT('',(0.252635470286,-0.220826792779));
#540 = CARTESIAN_POINT('',(0.258468112922,-0.225128759414));
#541 = CARTESIAN_POINT('',(0.264305515921,-0.229429720659));
#542 = CARTESIAN_POINT('',(0.268199525384,-0.232295591083));
#543 = CARTESIAN_POINT('',(0.270147380897,-0.2337283008));
#544 = ( GEOMETRIC_REPRESENTATION_CONTEXT(2) 
PARAMETRIC_REPRESENTATION_CONTEXT() REPRESENTATION_CONTEXT('2D SPACE',''
  ) );
#545 = ( GEOMETRIC_REPRESENTATION_CONTEXT(3) 
GLOBAL_UNCERTAINTY_ASSIGNED_CONTEXT((#549)) GLOBAL_UNIT_ASSIGNED_CONTEXT
((#546,#547,#548)) REPRESENTATION_CONTEXT('Context #1',
  '3D Context with UNIT and UNCERTAINTY') );
#546 = ( LENGTH_UNIT() NAMED_UNIT(*) SI_UNIT(.MILLI.,.METRE.) );
#547 = ( NAMED_UNIT(*) PLANE_ANGLE_UNIT() SI_UNIT($,.RADIAN.) );
#548 = ( NAMED_UNIT(*) SI_UNIT($,.STERADIAN.) SOLID_ANGLE_UNIT() );
#549 = UNCERTAINTY_MEASURE_WITH_UNIT(LENGTH_MEASURE(1.E-07),#546,
  'distance_accuracy_value','confusion accuracy');
#550 = CONTEXT_DEPENDENT_SHAPE_REPRESENTATION(#551,#553);
#551 = ( REPRESENTATION_RELATIONSHIP('','',#40,#10) 
REPRESENTATION_RELATIONSHIP_WITH_TRANSFORMATION(#552) 
SHAPE_REPRESENTATION_RELATIONSHIP() );
#552 = ITEM_DEFINED_TRANSFORMATION('','',#11,#15);
#553 = PRODUCT_DEFINITION_SHAPE('Placement','Placement of an item',#554
  );
#554 = NEXT_ASSEMBLY_USAGE_OCCURRENCE('1','','',#5,#35,$);
#555 = PRODUCT_RELATED_PRODUCT_CATEGORY('part',$,(#37));
#556 = SHAPE_DEFINITION_REPRESENTATION(#557,#563);
#557 = PRODUCT_DEFINITION_SHAPE('','',#558);
#558 = PRODUCT_DEFINITION('design','',#559,#562);
#559 = PRODUCT_DEFINITION_FORMATION('','',#560);
#560 = PRODUCT('Open CASCADE STEP translator 7.7 1.2',
  'Open CASCADE STEP translator 7.7 1.2','',(#561));
#561 = PRODUCT_CONTEXT('',#2,'mechanical');
#562 = PRODUCT_DEFINITION_CONTEXT('part definition',#2,'design');
#563 = GEOMETRICALLY_BOUNDED_WIREFRAME_SHAPE_REPRESENTATION('',(#11,#564
    ),#671);
#564 = GEOMETRIC_CURVE_SET('',(#565));
#565 = TRIMMED_CURVE('',#566,(#669,PARAMETER_VALUE(0.)),(#670,
    PARAMETER_VALUE(0.718886264785)),.T.,.PARAMETER.);
#566 = B_SPLINE_CURVE_WITH_KNOTS('',3,(#567,#568,#569,#570,#571,#572,
    #573,#574,#575,#576,#577,#578,#579,#580,#581,#582,#583,#584,#585,
    #586,#587,#588,#589,#590,#591,#592,#593,#594,#595,#596,#597,#598,
    #599,#600,#601,#602,#603,#604,#605,#606,#607,#608,#609,#610,#611,
    #612,#613,#614,#615,#616,#617,#618,#619,#620,#621,#622,#623,#624,
    #625,#626,#627,#628,#629,#630,#631,#632,#633,#634,#635,#636,#637,
    #638,#639,#640,#641,#642,#643,#644,#645,#646,#647,#648,#649,#650,
    #651,#652,#653,#654,#655,#656,#657,#658,#659,#660,#661,#662,#663,
    #664,#665,#666,#667,#668),.UNSPECIFIED.,.F.,.F.,(4,1,1,1,1,1,1,1,1,1
    ,1,1,1,1,1,1,1,1,1,1,1,1,1,1,1,1,1,1,1,1,1,1,1,1,1,1,1,1,1,1,1,1,1,1
    ,1,1,1,1,1,1,1,1,1,1,1,1,1,1,1,1,1,1,1,1,1,1,1,1,1,1,1,1,1,1,1,1,1,1
    ,1,1,1,1,1,1,1,1,1,1,1,1,1,1,1,1,1,1,1,1,1,4),(0.,1.412046360642E-02
    ,2.267927233532E-02,3.061176264864E-02,3.827287406216E-02,
    4.578120983492E-02,5.319119744519E-02,6.053243460242E-02,
    6.782286364876E-02,7.50742245419E-02,8.229464918957E-02,
    8.949002527001E-02,9.666476942537E-02,0.103822292433,0.110965292847,
    0.118095949878,0.125216054422,0.132327100648,0.139430351644,
    0.146526887499,0.153617641207,0.160703425953,0.167784956156,
    0.174862863947,0.181937712222,0.189010005114,0.19608019648,
    0.203148696852,0.210215879179,0.217282083614,0.224347621538,
    0.231412778964,0.238477819438,0.245542986536,0.252608506013,
    0.25967458767,0.266741426993,0.273809206578,0.280878097407,
    0.287948259958,0.295042915192,0.302173443939,0.30930519571,
    0.316438231091,0.323572605338,0.330708368917,0.337845567996,
    0.344984244896,0.352124438491,0.359266184587,0.366409516263,
    0.373554464176,0.38070105686,0.387849320984,0.394999281599,
    0.402150962369,0.409304385776,0.41645957332,0.4236165457,
    0.430775322985,0.437935924772,0.445098370336,0.452262678768,
    0.459428869112,0.466596960481,0.473766972182,0.48093892382,
    0.488112835409,0.495288727472,0.502466621133,0.509646538212,
    0.516828501313,0.524012533906,0.531198660416,0.538386906296,
    0.545577298108,0.552769863598,0.559964631773,0.56716163297,
    0.574360898934,0.581562462887,0.5887663596,0.595972625467,
    0.603181298573,0.610392418772,0.617606027755,0.62482216913,
    0.63204088849,0.639262233498,0.646486253956,0.653713001894,
    0.660942531646,0.668174899936,0.675410165965,0.682648391496,
    0.689889640952,0.697133981505,0.704381483174,0.711632218927,
    0.718886264785),.UNSPECIFIED.);
#567 = CARTESIAN_POINT('',(0.23089699205,0.727882158442,0.));
#568 = CARTESIAN_POINT('',(0.228619107566,0.723001663612,0.));
#569 = CARTESIAN_POINT('',(0.228659014271,0.715450188754,0.));
#570 = CARTESIAN_POINT('',(0.23283484747,0.705960917112,0.));
#571 = CARTESIAN_POINT('',(0.236788640232,0.698969010596,0.));
#572 = CARTESIAN_POINT('',(0.24108289595,0.692562577505,0.));
#573 = CARTESIAN_POINT('',(0.245571531323,0.686520881048,0.));
#574 = CARTESIAN_POINT('',(0.250215781351,0.680731893162,0.));
#575 = CARTESIAN_POINT('',(0.254977190047,0.675135434612,0.));
#576 = CARTESIAN_POINT('',(0.259833400793,0.669691793229,0.));
#577 = CARTESIAN_POINT('',(0.264767494831,0.664373735987,0.));
#578 = CARTESIAN_POINT('',(0.26976722302,0.659161276612,0.));
#579 = CARTESIAN_POINT('',(0.274823145523,0.654039232599,0.));
#580 = CARTESIAN_POINT('',(0.27992787068,0.648995680954,0.));
#581 = CARTESIAN_POINT('',(0.285075458066,0.644021024892,0.));
#582 = CARTESIAN_POINT('',(0.290261047968,0.639107374744,0.));
#583 = CARTESIAN_POINT('',(0.29548059753,0.634248129258,0.));
#584 = CARTESIAN_POINT('',(0.300730695616,0.629437681079,0.));
#585 = CARTESIAN_POINT('',(0.306008427689,0.624671204587,0.));
#586 = CARTESIAN_POINT('',(0.311311275744,0.619944499348,0.));
#587 = CARTESIAN_POINT('',(0.316637042689,0.615253872335,0.));
#588 = CARTESIAN_POINT('',(0.321983794324,0.610596047763,0.));
#589 = CARTESIAN_POINT('',(0.32734981417,0.605968096984,0.));
#590 = CARTESIAN_POINT('',(0.332733567861,0.601367383246,0.));
#591 = CARTESIAN_POINT('',(0.338133674745,0.596791517615,0.));
#592 = CARTESIAN_POINT('',(0.343548884996,0.592238323421,0.));
#593 = CARTESIAN_POINT('',(0.348978060996,0.587705807286,0.));
#594 = CARTESIAN_POINT('',(0.354420162068,0.583192135307,0.));
#595 = CARTESIAN_POINT('',(0.35987423184,0.578695613293,0.));
#596 = CARTESIAN_POINT('',(0.365339387732,0.574214670266,0.));
#597 = CARTESIAN_POINT('',(0.370814812132,0.569747844567,0.));
#598 = CARTESIAN_POINT('',(0.376299744962,0.565293772079,0.));
#599 = CARTESIAN_POINT('',(0.381793477382,0.560851176219,0.));
#600 = CARTESIAN_POINT('',(0.387295346343,0.556418859243,0.));
#601 = CARTESIAN_POINT('',(0.392804730266,0.551995695193,0.));
#602 = CARTESIAN_POINT('',(0.398321044006,0.547580622117,0.));
#603 = CARTESIAN_POINT('',(0.403843739427,0.543172641537,0.));
#604 = CARTESIAN_POINT('',(0.409372287531,0.538770794698,0.));
#605 = CARTESIAN_POINT('',(0.414906231498,0.534374228667,0.));
#606 = CARTESIAN_POINT('',(0.420444976813,0.529981929784,0.));
#607 = CARTESIAN_POINT('',(0.425994593873,0.525588928316,0.));
#608 = CARTESIAN_POINT('',(0.431561838909,0.521185091797,0.));
#609 = CARTESIAN_POINT('',(0.437152656594,0.516777975147,0.));
#610 = CARTESIAN_POINT('',(0.442761838625,0.512373511175,0.));
#611 = CARTESIAN_POINT('',(0.448379521866,0.507977815807,0.));
#612 = CARTESIAN_POINT('',(0.454005398525,0.503590437301,0.));
#613 = CARTESIAN_POINT('',(0.459639060674,0.499210799258,0.));
#614 = CARTESIAN_POINT('',(0.465280150975,0.494838391986,0.));
#615 = CARTESIAN_POINT('',(0.470928321112,0.490472719505,0.));
#616 = CARTESIAN_POINT('',(0.476583241872,0.486113312201,0.));
#617 = CARTESIAN_POINT('',(0.482244599498,0.481759722026,0.));
#618 = CARTESIAN_POINT('',(0.487912095805,0.477411522501,0.));
#619 = CARTESIAN_POINT('',(0.493585447378,0.473068307543,0.));
#620 = CARTESIAN_POINT('',(0.499264385083,0.468729690703,0.));
#621 = CARTESIAN_POINT('',(0.504948653566,0.464395304387,0.));
#622 = CARTESIAN_POINT('',(0.510638010812,0.460064799154,0.));
#623 = CARTESIAN_POINT('',(0.516332227739,0.45573784307,0.));
#624 = CARTESIAN_POINT('',(0.522031087835,0.451414121111,0.));
#625 = CARTESIAN_POINT('',(0.527734386821,0.447093334606,0.));
#626 = CARTESIAN_POINT('',(0.533441932351,0.442775200725,0.));
#627 = CARTESIAN_POINT('',(0.539153543732,0.438459452002,0.));
#628 = CARTESIAN_POINT('',(0.544869051678,0.43414583589,0.));
#629 = CARTESIAN_POINT('',(0.550588298075,0.429834114348,0.));
#630 = CARTESIAN_POINT('',(0.556311135772,0.425524063451,0.));
#631 = CARTESIAN_POINT('',(0.562037428397,0.421215473033,0.));
#632 = CARTESIAN_POINT('',(0.567767050175,0.416908146343,0.));
#633 = CARTESIAN_POINT('',(0.573499885773,0.412601899727,0.));
#634 = CARTESIAN_POINT('',(0.579235830158,0.408296562331,0.));
#635 = CARTESIAN_POINT('',(0.58497478846,0.403991975818,0.));
#636 = CARTESIAN_POINT('',(0.590716675857,0.3996879941,0.));
#637 = CARTESIAN_POINT('',(0.596461417465,0.395384483088,0.));
#638 = CARTESIAN_POINT('',(0.602208948237,0.391081320452,0.));
#639 = CARTESIAN_POINT('',(0.607959212875,0.386778395401,0.));
#640 = CARTESIAN_POINT('',(0.613712165748,0.382475608461,0.));
#641 = CARTESIAN_POINT('',(0.61946777082,0.378172871279,0.));
#642 = CARTESIAN_POINT('',(0.625226001579,0.373870106423,0.));
#643 = CARTESIAN_POINT('',(0.630986840985,0.369567247204,0.));
#644 = CARTESIAN_POINT('',(0.636750281408,0.365264237493,0.));
#645 = CARTESIAN_POINT('',(0.642516324586,0.360961031558,0.));
#646 = CARTESIAN_POINT('',(0.648284981578,0.3566575939,0.));
#647 = CARTESIAN_POINT('',(0.654056272731,0.352353899101,0.));
#648 = CARTESIAN_POINT('',(0.659830227642,0.348049931672,0.));
#649 = CARTESIAN_POINT('',(0.665606885132,0.343745685915,0.));
#650 = CARTESIAN_POINT('',(0.671386293218,0.339441165781,0.));
#651 = CARTESIAN_POINT('',(0.677168509094,0.335136384744,0.));
#652 = CARTESIAN_POINT('',(0.682953599113,0.330831365669,0.));
#653 = CARTESIAN_POINT('',(0.688741638769,0.326526140692,0.));
#654 = CARTESIAN_POINT('',(0.694532712687,0.322220751098,0.));
#655 = CARTESIAN_POINT('',(0.700326914612,0.31791524721,0.));
#656 = CARTESIAN_POINT('',(0.706124347407,0.313609688276,0.));
#657 = CARTESIAN_POINT('',(0.711925123039,0.309304142359,0.));
#658 = CARTESIAN_POINT('',(0.717729362587,0.304998686237,0.));
#659 = CARTESIAN_POINT('',(0.723537196236,0.300693405295,0.));
#660 = CARTESIAN_POINT('',(0.729348763278,0.29638839343,0.));
#661 = CARTESIAN_POINT('',(0.735164212121,0.292083752956,0.));
#662 = CARTESIAN_POINT('',(0.740983700283,0.287779594501,0.));
#663 = CARTESIAN_POINT('',(0.746807394423,0.283476036939,0.));
#664 = CARTESIAN_POINT('',(0.752635470286,0.279173207221,0.));
#665 = CARTESIAN_POINT('',(0.758468112922,0.274871240586,0.));
#666 = CARTESIAN_POINT('',(0.764305515921,0.270570279341,0.));
#667 = CARTESIAN_POINT('',(0.768199525384,0.267704408917,-0.));
#668 = CARTESIAN_POINT('',(0.770147380897,0.2662716992,0.));
#669 = CARTESIAN_POINT('',(0.23089699205,0.727882158442,0.));
#670 = CARTESIAN_POINT('',(0.770147380897,0.2662716992,0.));
#671 = ( GEOMETRIC_REPRESENTATION_CONTEXT(3) 
GLOBAL_UNCERTAINTY_ASSIGNED_CONTEXT((#675)) GLOBAL_UNIT_ASSIGNED_CONTEXT
((#672,#673,#674)) REPRESENTATION_CONTEXT('Context #1',
  '3D Context with UNIT and UNCERTAINTY') );
#672 = ( LENGTH_UNIT() NAMED_UNIT(*) SI_UNIT(.MILLI.,.METRE.) );
#673 = ( NAMED_UNIT(*) PLANE_ANGLE_UNIT() SI_UNIT($,.RADIAN.) );
#674 = ( NAMED_UNIT(*) SI_UNIT($,.STERADIAN.) SOLID_ANGLE_UNIT() );
#675 = UNCERTAINTY_MEASURE_WITH_UNIT(LENGTH_MEASURE(1.E-07),#672,
  'distance_accuracy_value','confusion accuracy');
#676 = CONTEXT_DEPENDENT_SHAPE_REPRESENTATION(#677,#679);
#677 = ( REPRESENTATION_RELATIONSHIP('','',#563,#10) 
REPRESENTATION_RELATIONSHIP_WITH_TRANSFORMATION(#678) 
SHAPE_REPRESENTATION_RELATIONSHIP() );
#678 = ITEM_DEFINED_TRANSFORMATION('','',#11,#19);
#679 = PRODUCT_DEFINITION_SHAPE('Placement','Placement of an item',#680
  );
#680 = NEXT_ASSEMBLY_USAGE_OCCURRENCE('2','','',#5,#558,$);
#681 = PRODUCT_RELATED_PRODUCT_CATEGORY('part',$,(#560));
#682 = SHAPE_DEFINITION_REPRESENTATION(#683,#689);
#683 = PRODUCT_DEFINITION_SHAPE('','',#684);
#684 = PRODUCT_DEFINITION('design','',#685,#688);
#685 = PRODUCT_DEFINITION_FORMATION('','',#686);
#686 = PRODUCT('Open CASCADE STEP translator 7.7 1.3',
  'Open CASCADE STEP translator 7.7 1.3','',(#687));
#687 = PRODUCT_CONTEXT('',#2,'mechanical');
#688 = PRODUCT_DEFINITION_CONTEXT('part definition',#2,'design');
#689 = GEOMETRICALLY_BOUNDED_WIREFRAME_SHAPE_REPRESENTATION('',(#11,#690
    ),#887);
#690 = GEOMETRIC_CURVE_SET('',(#691,#692,#693,#694,#695,#696,#697,#698,
    #699,#700,#701,#702,#703,#704,#705,#706,#707,#708,#709,#710,#711,
    #712,#713,#714,#715,#716,#717,#718,#719,#720,#721,#722,#723,#724,
    #725,#726,#727,#728,#729,#730,#731,#732,#733,#734,#735,#736,#737,
    #738,#739,#740,#741,#742,#743,#744,#745,#746,#747,#748,#749,#750,
    #751,#752,#753,#754,#755,#756,#757,#758,#759,#760,#761,#762,#763,
    #764,#765,#766,#767,#768,#769,#770,#771,#772,#773,#774,#775,#776,
    #777,#778,#779,#780,#781,#782,#783,#784,#785,#786,#787,#788,#789,
    #790,#791,#792,#793,#794,#795,#796,#797,#798,#799,#800,#801,#802,
    #803,#804,#805,#806,#807,#808,#809,#810,#811,#812,#813,#814,#815,
    #816,#817,#818,#819,#820,#821,#822,#823,#824,#825,#826,#827,#828,
    #829,#830,#831,#832,#833,#834,#835,#836,#837,#838,#839,#840,#841,
    #842,#843,#844,#845,#846,#847,#848,#849,#850,#851,#852,#853,#854,
    #855,#856,#857,#858,#859,#860,#861,#862,#863,#864,#865,#866,#867,
    #868,#869,#870,#871,#872,#873,#874,#875,#876,#877,#878,#879,#880,
    #881,#882,#883,#884,#885,#886));
#691 = CARTESIAN_POINT('',(0.243767429173,0.7337283008,0.));
#692 = CARTESIAN_POINT('',(0.252381094467,0.733407670981,0.));
#693 = CARTESIAN_POINT('',(0.260279054805,0.732035155277,0.));
#694 = CARTESIAN_POINT('',(0.267795896376,0.730098597616,0.));
#695 = CARTESIAN_POINT('',(0.275060844467,0.727787729434,0.));
#696 = CARTESIAN_POINT('',(0.282140033453,0.725200353793,0.));
#697 = CARTESIAN_POINT('',(0.289072696499,0.722394935417,0.));
#698 = CARTESIAN_POINT('',(0.295884381444,0.7194098541,0.));
#699 = CARTESIAN_POINT('',(0.302592838535,0.716272003163,0.));
#700 = CARTESIAN_POINT('',(0.309211006438,0.71300116077,0.));
#701 = CARTESIAN_POINT('',(0.315748673024,0.709612427052,0.));
#702 = CARTESIAN_POINT('',(0.322213465507,0.706117680577,0.));
#703 = CARTESIAN_POINT('',(0.328611473692,0.702526497368,0.));
#704 = CARTESIAN_POINT('',(0.334947659834,0.698846756745,0.));
#705 = CARTESIAN_POINT('',(0.341226138049,0.695085055368,0.));
#706 = CARTESIAN_POINT('',(0.347450370629,0.691246998887,0.));
#707 = CARTESIAN_POINT('',(0.353623309566,0.687337412747,0.));
#708 = CARTESIAN_POINT('',(0.35974750086,0.683360497966,0.));
#709 = CARTESIAN_POINT('',(0.365825162884,0.679319948507,0.));
#710 = CARTESIAN_POINT('',(0.371858246272,0.675219041226,0.));
#711 = CARTESIAN_POINT('',(0.377848480371,0.671060705855,0.));
#712 = CARTESIAN_POINT('',(0.383797409748,0.666847580184,0.));
#713 = CARTESIAN_POINT('',(0.389706423238,0.662582054109,0.));
#714 = CARTESIAN_POINT('',(0.3955767773,0.658266305174,0.));
#715 = CARTESIAN_POINT('',(0.401409614976,0.653902327545,0.));
#716 = CARTESIAN_POINT('',(0.407205981423,0.64949195583,0.));
#717 = CARTESIAN_POINT('',(0.41296683674,0.645036884842,0.));
#718 = CARTESIAN_POINT('',(0.418693066634,0.640538686115,0.));
#719 = CARTESIAN_POINT('',(0.424385491356,0.635998821801,0.));
#720 = CARTESIAN_POINT('',(0.430044873227,0.631418656448,0.));
#721 = CARTESIAN_POINT('',(0.435671923015,0.62679946704,0.));
#722 = CARTESIAN_POINT('',(0.441267305373,0.622142451603,0.));
#723 = CARTESIAN_POINT('',(0.446831643486,0.617448736626,0.));
#724 = CARTESIAN_POINT('',(0.452365523073,0.612719383486,0.));
#725 = CARTESIAN_POINT('',(0.457869495835,0.607955394045,0.));
#726 = CARTESIAN_POINT('',(0.463344082451,0.603157715544,0.));
#727 = CARTESIAN_POINT('',(0.468789775176,0.598327244893,0.));
#728 = CARTESIAN_POINT('',(0.474207040109,0.593464832465,0.));
#729 = CARTESIAN_POINT('',(0.479596319184,0.588571285446,0.));
#730 = CARTESIAN_POINT('',(0.484941030959,0.583662967372,0.));
#731 = CARTESIAN_POINT('',(0.490238169603,0.578753506053,0.));
#732 = CARTESIAN_POINT('',(0.49551585207,0.573822336804,0.));
#733 = CARTESIAN_POINT('',(0.500774501605,0.568870060401,0.));
#734 = CARTESIAN_POINT('',(0.506014520761,0.563897248591,0.));
#735 = CARTESIAN_POINT('',(0.511236292526,0.558904445711,0.));
#736 = CARTESIAN_POINT('',(0.516440181337,0.553892170141,0.));
#737 = CARTESIAN_POINT('',(0.521626533985,0.548860915618,0.));
#738 = CARTESIAN_POINT('',(0.526795680433,0.543811152436,0.));
#739 = CARTESIAN_POINT('',(0.531947934549,0.538743328532,0.));
#740 = CARTESIAN_POINT('',(0.537083594774,0.533657870481,0.));
#741 = CARTESIAN_POINT('',(0.542202944716,0.528555184402,0.));
#742 = CARTESIAN_POINT('',(0.547306253696,0.523435656791,0.));
#743 = CARTESIAN_POINT('',(0.552393777239,0.518299655282,0.));
#744 = CARTESIAN_POINT('',(0.557465757515,0.513147529353,0.));
#745 = CARTESIAN_POINT('',(0.562522423751,0.507979610973,0.));
#746 = CARTESIAN_POINT('',(0.567563992594,0.502796215199,0.));
#747 = CARTESIAN_POINT('',(0.572590668444,0.497597640733,0.));
#748 = CARTESIAN_POINT('',(0.577602643763,0.492384170432,0.));
#749 = CARTESIAN_POINT('',(0.582600099347,0.487156071788,0.));
#750 = CARTESIAN_POINT('',(0.587583204584,0.481913597374,0.));
#751 = CARTESIAN_POINT('',(0.592552117678,0.476656985253,0.));
#752 = CARTESIAN_POINT('',(0.597506985863,0.471386459372,0.));
#753 = CARTESIAN_POINT('',(0.602447945593,0.466102229917,0.));
#754 = CARTESIAN_POINT('',(0.607375122716,0.460804493659,0.));
#755 = CARTESIAN_POINT('',(0.612288632634,0.455493434269,0.));
#756 = CARTESIAN_POINT('',(0.617188580446,0.450169222616,0.));
#757 = CARTESIAN_POINT('',(0.622075061083,0.444832017055,0.));
#758 = CARTESIAN_POINT('',(0.626948159423,0.439481963688,0.));
#759 = CARTESIAN_POINT('',(0.631807950407,0.434119196617,0.));
#760 = CARTESIAN_POINT('',(0.636654499132,0.428743838183,0.));
#761 = CARTESIAN_POINT('',(0.641487860945,0.423355999192,0.));
#762 = CARTESIAN_POINT('',(0.646308081523,0.417955779126,0.));
#763 = CARTESIAN_POINT('',(0.651115196947,0.412543266349,0.));
#764 = CARTESIAN_POINT('',(0.655909233769,0.407118538302,0.));
#765 = CARTESIAN_POINT('',(0.660690209073,0.401681661683,0.));
#766 = CARTESIAN_POINT('',(0.665458130527,0.396232692627,0.));
#767 = CARTESIAN_POINT('',(0.670212996431,0.390771676874,0.));
#768 = CARTESIAN_POINT('',(0.674954795761,0.385298649927,0.));
#769 = CARTESIAN_POINT('',(0.679683508209,0.379813637211,0.));
#770 = CARTESIAN_POINT('',(0.684399104212,0.374316654219,0.));
#771 = CARTESIAN_POINT('',(0.689101544983,0.368807706653,0.));
#772 = CARTESIAN_POINT('',(0.69379078254,0.363286790563,0.));
#773 = CARTESIAN_POINT('',(0.698466759722,0.357753892478,0.));
#774 = CARTESIAN_POINT('',(0.703129410211,0.352208989534,0.));
#775 = CARTESIAN_POINT('',(0.707778658546,0.346652049596,0.));
#776 = CARTESIAN_POINT('',(0.712414420137,0.341083031377,0.));
#777 = CARTESIAN_POINT('',(0.717036601271,0.335501884554,0.));
#778 = CARTESIAN_POINT('',(0.721645099123,0.329908549877,0.));
#779 = CARTESIAN_POINT('',(0.726239801758,0.32430295928,0.));
#780 = CARTESIAN_POINT('',(0.730820588134,0.318685035981,0.));
#781 = CARTESIAN_POINT('',(0.735387328103,0.313054694591,0.));
#782 = CARTESIAN_POINT('',(0.739939882408,0.307411841207,0.));
#783 = CARTESIAN_POINT('',(0.744478102683,0.301756373511,0.));
#784 = CARTESIAN_POINT('',(0.749001831443,0.296088180863,0.));
#785 = CARTESIAN_POINT('',(0.753510902082,0.290407144395,0.));
#786 = CARTESIAN_POINT('',(0.758005138862,0.284713137098,0.));
#787 = CARTESIAN_POINT('',(0.762484356903,0.279006023913,0.));
#788 = CARTESIAN_POINT('',(0.766948362175,0.27328566181,0.));
#789 = CARTESIAN_POINT('',(0.229852619103,0.713800369578,0.));
#790 = CARTESIAN_POINT('',(0.23304150149,0.705857811049,0.));
#791 = CARTESIAN_POINT('',(0.236922572335,0.698939596564,0.));
#792 = CARTESIAN_POINT('',(0.241161245453,0.692557882195,0.));
#793 = CARTESIAN_POINT('',(0.245628295554,0.686522936505,0.));
#794 = CARTESIAN_POINT('',(0.250257588263,0.680736956433,0.));
#795 = CARTESIAN_POINT('',(0.255009890417,0.675141477255,0.));
#796 = CARTESIAN_POINT('',(0.259859654175,0.669698119176,0.));
#797 = CARTESIAN_POINT('',(0.264789129291,0.664379988876,0.));
#798 = CARTESIAN_POINT('',(0.269785377099,0.659167308191,0.));
#799 = CARTESIAN_POINT('',(0.274838609727,0.654044976988,0.));
#800 = CARTESIAN_POINT('',(0.279941199962,0.649001116702,0.));
#801 = CARTESIAN_POINT('',(0.285087058,0.644026151309,0.));
#802 = CARTESIAN_POINT('',(0.290271221584,0.639112201488,0.));
#803 = CARTESIAN_POINT('',(0.295489576599,0.63425267058,0.));
#804 = CARTESIAN_POINT('',(0.300738660752,0.629441952935,0.));
#805 = CARTESIAN_POINT('',(0.306015522052,0.624675223107,0.));
#806 = CARTESIAN_POINT('',(0.311317614499,0.619948280079,0.));
#807 = CARTESIAN_POINT('',(0.31664271972,0.615257429887,0.));
#808 = CARTESIAN_POINT('',(0.32198888708,0.610599395676,0.));
#809 = CARTESIAN_POINT('',(0.327354387234,0.605971247713,0.));
#810 = CARTESIAN_POINT('',(0.332737675614,0.60137034821,0.));
#811 = CARTESIAN_POINT('',(0.338137363383,0.596794307269,0.));
#812 = CARTESIAN_POINT('',(0.343552194085,0.592240947347,0.));
#813 = CARTESIAN_POINT('',(0.348981024677,0.587708274277,0.));
#814 = CARTESIAN_POINT('',(0.354422810001,0.583194453453,0.));
#815 = CARTESIAN_POINT('',(0.359876589959,0.578697790059,0.));
#816 = CARTESIAN_POINT('',(0.365341478844,0.574216712563,0.));
#817 = CARTESIAN_POINT('',(0.370816656404,0.569749758813,0.));
#818 = CARTESIAN_POINT('',(0.37630136032,0.565295564261,0.));
#819 = CARTESIAN_POINT('',(0.381794879822,0.560852851922,0.));
#820 = CARTESIAN_POINT('',(0.387296550258,0.556420423771,0.));
#821 = CARTESIAN_POINT('',(0.392805748442,0.551997153319,0.));
#822 = CARTESIAN_POINT('',(0.398321888657,0.547581979188,0.));
#823 = CARTESIAN_POINT('',(0.4038444192,0.543173899516,0.));
#824 = CARTESIAN_POINT('',(0.409372819393,0.538771967064,0.));
#825 = CARTESIAN_POINT('',(0.414906596982,0.53437528492,0.));
#826 = CARTESIAN_POINT('',(0.420445285865,0.529983002712,0.));
#827 = CARTESIAN_POINT('',(0.425988444111,0.525594313253,0.));
#828 = CARTESIAN_POINT('',(0.431553698337,0.521194077091,0.));
#829 = CARTESIAN_POINT('',(0.437153722269,0.51677998917,0.));
#830 = CARTESIAN_POINT('',(0.442762750602,0.512375368361,0.));
#831 = CARTESIAN_POINT('',(0.448380360091,0.507979613888,0.));
#832 = CARTESIAN_POINT('',(0.454006148183,0.503592154003,0.));
#833 = CARTESIAN_POINT('',(0.459639731889,0.499212444369,0.));
#834 = CARTESIAN_POINT('',(0.465280746774,0.494839966608,0.));
#835 = CARTESIAN_POINT('',(0.470928846045,0.490474226981,0.));
#836 = CARTESIAN_POINT('',(0.476583699741,0.486114755196,0.));
#837 = CARTESIAN_POINT('',(0.482244993992,0.481761103313,0.));
#838 = CARTESIAN_POINT('',(0.487912430359,0.477412844759,0.));
#839 = CARTESIAN_POINT('',(0.493585725232,0.473069573414,0.));
#840 = CARTESIAN_POINT('',(0.49926460929,0.468730902784,0.));
#841 = CARTESIAN_POINT('',(0.504948827011,0.464396465233,0.));
#842 = CARTESIAN_POINT('',(0.510638136222,0.460065911283,0.));
#843 = CARTESIAN_POINT('',(0.516332307696,0.455738908966,0.));
#844 = CARTESIAN_POINT('',(0.522031124788,0.451415143225,0.));
#845 = CARTESIAN_POINT('',(0.527734383096,0.447094315357,0.));
#846 = CARTESIAN_POINT('',(0.53344189016,0.442776142507,0.));
#847 = CARTESIAN_POINT('',(0.539153465182,0.43846035718,0.));
#848 = CARTESIAN_POINT('',(0.544868938776,0.434146706805,0.));
#849 = CARTESIAN_POINT('',(0.550588152736,0.429834953319,0.));
#850 = CARTESIAN_POINT('',(0.556310959829,0.425524872775,0.));
#851 = CARTESIAN_POINT('',(0.562037223601,0.421216254985,0.));
#852 = CARTESIAN_POINT('',(0.567766818204,0.416908903181,0.));
#853 = CARTESIAN_POINT('',(0.573499628235,0.412602633691,0.));
#854 = CARTESIAN_POINT('',(0.579235548597,0.408297275644,0.));
#855 = CARTESIAN_POINT('',(0.584974484358,0.403992670688,0.));
#856 = CARTESIAN_POINT('',(0.590716350638,0.39968867272,0.));
#857 = CARTESIAN_POINT('',(0.5964610725,0.395385147637,0.));
#858 = CARTESIAN_POINT('',(0.602208584844,0.391081973098,0.));
#859 = CARTESIAN_POINT('',(0.607958832325,0.386779038298,0.));
#860 = CARTESIAN_POINT('',(0.613711769264,0.382476243755,0.));
#861 = CARTESIAN_POINT('',(0.619467359581,0.378173501104,0.));
#862 = CARTESIAN_POINT('',(0.625225576723,0.373870732905,0.));
#863 = CARTESIAN_POINT('',(0.630986403608,0.36956787246,0.));
#864 = CARTESIAN_POINT('',(0.636749832567,0.365264863633,0.));
#865 = CARTESIAN_POINT('',(0.6425158653,0.360961660685,0.));
#866 = CARTESIAN_POINT('',(0.64828451283,0.356658228112,0.));
#867 = CARTESIAN_POINT('',(0.654055795466,0.35235454049,0.));
#868 = CARTESIAN_POINT('',(0.659829742772,0.348050582326,0.));
#869 = CARTESIAN_POINT('',(0.665606393533,0.343746347917,0.));
#870 = CARTESIAN_POINT('',(0.671385795732,0.339441841214,0.));
#871 = CARTESIAN_POINT('',(0.67716800653,0.335137075688,0.));
#872 = CARTESIAN_POINT('',(0.682953092245,0.330832074202,0.));
#873 = CARTESIAN_POINT('',(0.688741128338,0.326526868892,0.));
#874 = CARTESIAN_POINT('',(0.694532199398,0.322221501044,0.));
#875 = CARTESIAN_POINT('',(0.70032639914,0.317916020982,0.));
#876 = CARTESIAN_POINT('',(0.706123830387,0.313610487955,0.));
#877 = CARTESIAN_POINT('',(0.711924605076,0.309304970031,0.));
#878 = CARTESIAN_POINT('',(0.717728844247,0.304999543989,0.));
#879 = CARTESIAN_POINT('',(0.72353667805,0.300694295221,0.));
#880 = CARTESIAN_POINT('',(0.729348245739,0.296389317628,0.));
#881 = CARTESIAN_POINT('',(0.735163695683,0.292084713529,0.));
#882 = CARTESIAN_POINT('',(0.740983185366,0.287780593564,0.));
#883 = CARTESIAN_POINT('',(0.746806881394,0.2834770766,0.));
#884 = CARTESIAN_POINT('',(0.752634959505,0.279174289646,0.));
#885 = CARTESIAN_POINT('',(0.758467604579,0.274872367763,0.));
#886 = CARTESIAN_POINT('',(0.764305010645,0.270571453978,0.));
#887 = ( GEOMETRIC_REPRESENTATION_CONTEXT(3) 
GLOBAL_UNCERTAINTY_ASSIGNED_CONTEXT((#891)) GLOBAL_UNIT_ASSIGNED_CONTEXT
((#888,#889,#890)) REPRESENTATION_CONTEXT('Context #1',
  '3D Context with UNIT and UNCERTAINTY') );
#888 = ( LENGTH_UNIT() NAMED_UNIT(*) SI_UNIT(.MILLI.,.METRE.) );
#889 = ( NAMED_UNIT(*) PLANE_ANGLE_UNIT() SI_UNIT($,.RADIAN.) );
#890 = ( NAMED_UNIT(*) SI_UNIT($,.STERADIAN.) SOLID_ANGLE_UNIT() );
#891 = UNCERTAINTY_MEASURE_WITH_UNIT(LENGTH_MEASURE(1.E-07),#888,
  'distance_accuracy_value','confusion accuracy');
#892 = CONTEXT_DEPENDENT_SHAPE_REPRESENTATION(#893,#895);
#893 = ( REPRESENTATION_RELATIONSHIP('','',#689,#10) 
REPRESENTATION_RELATIONSHIP_WITH_TRANSFORMATION(#894) 
SHAPE_REPRESENTATION_RELATIONSHIP() );
#894 = ITEM_DEFINED_TRANSFORMATION('','',#11,#23);
#895 = PRODUCT_DEFINITION_SHAPE('Placement','Placement of an item',#896
  );
#896 = NEXT_ASSEMBLY_USAGE_OCCURRENCE('3','','',#5,#684,$);
#897 = PRODUCT_RELATED_PRODUCT_CATEGORY('part',$,(#686));
ENDSEC;
END-ISO-10303-21;
